<?xml version="1.0" encoding="UTF-8" standalone="no"?>
<!DOCTYPE svg PUBLIC "-//W3C//DTD SVG 1.1//EN" "http://www.w3.org/Graphics/SVG/1.1/DTD/svg11.dtd">
<svg width="100%" height="100%" viewBox="0 0 937 937" version="1.1" xmlns="http://www.w3.org/2000/svg" xmlns:xlink="http://www.w3.org/1999/xlink" xml:space="preserve" xmlns:serif="http://www.serif.com/" style="fill-rule:evenodd;clip-rule:evenodd;stroke-linecap:round;stroke-linejoin:round;stroke-miterlimit:1.5;">
    <g transform="matrix(1,0,0,1,-491.5,-71.5)">
        <g id="fernfusion" transform="matrix(1,0,0,1,488,72)">
            <clipPath id="_clip1">
                <rect x="0" y="0" width="944" height="936"/>
            </clipPath>
            <g clip-path="url(#_clip1)">
                <g transform="matrix(1,-0,-0,1,3.5,-0.5)">
                </g>
            </g>
        </g>
        <g transform="matrix(2.31942,0,0,2.75294,-1308.91,-1084.24)">
            <g id="Background">
                <ellipse cx="978.225" cy="590" rx="201.775" ry="170" style="fill:rgb(255,245,0);stroke:black;stroke-width:0.39px;"/>
            </g>
        </g>
        <path id="Sun" d="M656.083,333.441C656.083,333.441 668.734,336.91 675.634,338.803C678.505,339.59 681.52,339.695 684.439,339.108C686.014,338.792 687.859,338.421 689.718,338.048C696.121,336.761 701.421,332.289 703.767,326.194C705.516,321.651 707.479,316.55 708.727,313.309C709.568,311.122 710,308.798 710,306.455C710,301.821 710,294.288 710,294.288C710,294.288 721.649,305.844 727.166,311.318C729.035,313.172 731.268,314.619 733.723,315.569C734.975,316.053 736.42,316.611 737.851,317.165C742.505,318.965 747.712,318.642 752.108,316.281C754.213,315.151 756.492,313.928 758.474,312.863C761.944,311 764.752,308.109 766.513,304.587C770.257,297.101 776.559,284.5 776.559,284.5C776.559,284.5 778,290.991 779.017,295.572C779.682,298.57 781.143,301.334 783.245,303.573C784.737,305.164 786.104,306.561 787.351,307.765C791.155,311.424 796.305,313.343 801.576,313.065C805.45,312.855 809.121,312.237 812.555,311.145C813.035,310.992 813.51,310.82 813.977,310.63C820.081,308.104 824.653,304.156 827.974,299.04C827.983,299.027 827.991,299.013 828,299C828.008,298.987 840,280 840,280L840,302.096C840,307.157 842.01,312.01 845.589,315.589C847.024,317.024 848.394,318.394 849.216,319.216C850.222,320.222 851.366,321.081 852.612,321.767C858.297,324.874 864.808,324.189 869.737,322.748C870.876,322.409 871.981,321.965 873.038,321.421C877.604,319.113 895.294,310 895.294,310C895.294,310 893.372,317.26 891.844,323.032C890.656,327.522 891.146,332.292 893.224,336.447C894.055,338.109 894.961,339.922 895.832,341.665C898.462,346.925 903.371,350.678 909.136,351.838C911.763,352.366 914.47,352.911 916.525,353.324C918.822,353.786 921.185,353.821 923.494,353.428C930.064,352.308 943.6,350 943.6,350C943.6,350 936.244,360.817 932.352,366.541C930.802,368.82 929.765,371.407 929.311,374.126C929.182,374.895 929.041,375.741 928.891,376.638C927.247,386.476 933.458,395.921 943.143,398.309C944.938,398.752 946.544,399.148 947.75,399.445C949.244,399.814 950.778,400 952.318,400L965.188,400C965.188,400 958.481,411.414 955.2,416.997C954.034,418.983 953.236,421.163 952.846,423.433C952.597,424.88 952.292,426.657 951.975,428.503C950.763,435.56 953.604,442.703 959.333,446.999C960.084,447.562 960.78,448.084 961.375,448.53C962.675,449.505 964.108,450.29 965.629,450.86C972.095,453.285 990,460 990,460C990,460 977.561,466.341 968.703,470.857C963.238,473.643 959.446,478.886 958.511,484.948C958.124,487.455 957.713,490.118 957.346,492.496C956.603,497.315 957.732,502.236 960.503,506.248C964.555,512.116 970,520 970,520C970,520 963.357,521.57 957.136,523.041C950.551,524.597 945.282,529.525 943.29,535.992C942.614,538.187 941.935,540.389 941.372,542.219C940.475,545.128 940.415,548.23 941.198,551.171C942.563,556.297 944.606,563.97 944.606,563.97C944.606,563.97 935.195,562.452 928.013,561.293C922.893,560.467 917.657,561.761 913.511,564.876C911.631,566.289 909.561,567.845 907.618,569.304C902.822,572.909 900,578.559 900,584.559C900,591.612 900,600 900,600C900,600 891.788,595.894 885.888,592.944C882.073,591.037 877.729,590.462 873.549,591.313C872.004,591.628 870.33,591.968 868.702,592.3C863.185,593.423 858.445,596.925 855.752,601.87C851.592,609.506 845.876,620 845.876,620C845.876,620 838.76,612.913 831.991,606.172C825.149,599.357 814.294,598.729 806.711,604.708C805.718,605.492 804.773,606.237 803.922,606.907C801.351,608.935 799.344,611.59 798.096,614.618C796.311,618.949 793.913,624.764 793.913,624.764C793.913,624.764 788.533,615.189 784.464,607.946C781.641,602.921 776.697,599.441 771.013,598.479C769.293,598.188 767.48,597.881 765.727,597.584C759.408,596.514 752.974,598.689 748.599,603.372C741.982,610.455 733.065,620 733.065,620C733.065,620 731.12,607.309 730.329,602.146C730.11,600.72 729.731,599.323 729.197,597.983C728.398,595.972 727.093,592.692 725.714,589.227C722.383,580.854 713.647,575.952 704.765,577.473C700.166,578.26 695.596,579.042 692.786,579.523C690.939,579.839 689.148,580.426 687.472,581.264C682.093,583.954 670,590 670,590C670,590 674.615,576.156 677.574,567.277C679.106,562.683 678.441,557.64 675.771,553.6C675.138,552.641 674.487,551.656 673.861,550.709C671.502,547.139 667.301,545.243 663.063,545.835C652.421,547.324 633.282,550 633.282,550C633.282,550 637.137,538.522 639.007,532.957C639.665,530.999 640,528.947 640,526.881L640,521.793C640,514.565 635.917,507.958 629.452,504.726C626.846,503.423 624.29,502.145 622.495,501.247C620.84,500.42 619.075,499.838 617.253,499.519C605.857,497.523 562.901,490 562.901,490C562.901,490 581.52,483.129 587.892,480.778C589.292,480.261 590.628,479.582 591.87,478.753C595.714,476.191 604.711,470.192 611.503,465.665C616.812,462.126 620,456.168 620,449.788L620,447.904C620,442.843 617.99,437.99 614.411,434.411C608.494,428.494 600,420 600,420C600,420 609.655,418.238 616.803,416.934C621.614,416.056 625.851,413.234 628.514,409.133C629.279,407.956 630.071,406.736 630.818,405.586C633.052,402.148 633.208,397.758 631.224,394.17C626.967,386.468 620,373.864 620,373.864C620,373.864 632.043,374.353 640.869,374.711C646.642,374.946 652.211,372.551 656.012,368.2C656.171,368.019 656.329,367.837 656.488,367.656C660.669,362.87 662.193,356.318 660.553,350.178C658.533,342.614 656.083,333.441 656.083,333.441Z" style="fill:rgb(255,86,86);"/>
        <clipPath id="_clip2">
            <path id="Sun1" serif:id="Sun" d="M656.083,333.441C656.083,333.441 668.734,336.91 675.634,338.803C678.505,339.59 681.52,339.695 684.439,339.108C686.014,338.792 687.859,338.421 689.718,338.048C696.121,336.761 701.421,332.289 703.767,326.194C705.516,321.651 707.479,316.55 708.727,313.309C709.568,311.122 710,308.798 710,306.455C710,301.821 710,294.288 710,294.288C710,294.288 721.649,305.844 727.166,311.318C729.035,313.172 731.268,314.619 733.723,315.569C734.975,316.053 736.42,316.611 737.851,317.165C742.505,318.965 747.712,318.642 752.108,316.281C754.213,315.151 756.492,313.928 758.474,312.863C761.944,311 764.752,308.109 766.513,304.587C770.257,297.101 776.559,284.5 776.559,284.5C776.559,284.5 778,290.991 779.017,295.572C779.682,298.57 781.143,301.334 783.245,303.573C784.737,305.164 786.104,306.561 787.351,307.765C791.155,311.424 796.305,313.343 801.576,313.065C805.45,312.855 809.121,312.237 812.555,311.145C813.035,310.992 813.51,310.82 813.977,310.63C820.081,308.104 824.653,304.156 827.974,299.04C827.983,299.027 827.991,299.013 828,299C828.008,298.987 840,280 840,280L840,302.096C840,307.157 842.01,312.01 845.589,315.589C847.024,317.024 848.394,318.394 849.216,319.216C850.222,320.222 851.366,321.081 852.612,321.767C858.297,324.874 864.808,324.189 869.737,322.748C870.876,322.409 871.981,321.965 873.038,321.421C877.604,319.113 895.294,310 895.294,310C895.294,310 893.372,317.26 891.844,323.032C890.656,327.522 891.146,332.292 893.224,336.447C894.055,338.109 894.961,339.922 895.832,341.665C898.462,346.925 903.371,350.678 909.136,351.838C911.763,352.366 914.47,352.911 916.525,353.324C918.822,353.786 921.185,353.821 923.494,353.428C930.064,352.308 943.6,350 943.6,350C943.6,350 936.244,360.817 932.352,366.541C930.802,368.82 929.765,371.407 929.311,374.126C929.182,374.895 929.041,375.741 928.891,376.638C927.247,386.476 933.458,395.921 943.143,398.309C944.938,398.752 946.544,399.148 947.75,399.445C949.244,399.814 950.778,400 952.318,400L965.188,400C965.188,400 958.481,411.414 955.2,416.997C954.034,418.983 953.236,421.163 952.846,423.433C952.597,424.88 952.292,426.657 951.975,428.503C950.763,435.56 953.604,442.703 959.333,446.999C960.084,447.562 960.78,448.084 961.375,448.53C962.675,449.505 964.108,450.29 965.629,450.86C972.095,453.285 990,460 990,460C990,460 977.561,466.341 968.703,470.857C963.238,473.643 959.446,478.886 958.511,484.948C958.124,487.455 957.713,490.118 957.346,492.496C956.603,497.315 957.732,502.236 960.503,506.248C964.555,512.116 970,520 970,520C970,520 963.357,521.57 957.136,523.041C950.551,524.597 945.282,529.525 943.29,535.992C942.614,538.187 941.935,540.389 941.372,542.219C940.475,545.128 940.415,548.23 941.198,551.171C942.563,556.297 944.606,563.97 944.606,563.97C944.606,563.97 935.195,562.452 928.013,561.293C922.893,560.467 917.657,561.761 913.511,564.876C911.631,566.289 909.561,567.845 907.618,569.304C902.822,572.909 900,578.559 900,584.559C900,591.612 900,600 900,600C900,600 891.788,595.894 885.888,592.944C882.073,591.037 877.729,590.462 873.549,591.313C872.004,591.628 870.33,591.968 868.702,592.3C863.185,593.423 858.445,596.925 855.752,601.87C851.592,609.506 845.876,620 845.876,620C845.876,620 838.76,612.913 831.991,606.172C825.149,599.357 814.294,598.729 806.711,604.708C805.718,605.492 804.773,606.237 803.922,606.907C801.351,608.935 799.344,611.59 798.096,614.618C796.311,618.949 793.913,624.764 793.913,624.764C793.913,624.764 788.533,615.189 784.464,607.946C781.641,602.921 776.697,599.441 771.013,598.479C769.293,598.188 767.48,597.881 765.727,597.584C759.408,596.514 752.974,598.689 748.599,603.372C741.982,610.455 733.065,620 733.065,620C733.065,620 731.12,607.309 730.329,602.146C730.11,600.72 729.731,599.323 729.197,597.983C728.398,595.972 727.093,592.692 725.714,589.227C722.383,580.854 713.647,575.952 704.765,577.473C700.166,578.26 695.596,579.042 692.786,579.523C690.939,579.839 689.148,580.426 687.472,581.264C682.093,583.954 670,590 670,590C670,590 674.615,576.156 677.574,567.277C679.106,562.683 678.441,557.64 675.771,553.6C675.138,552.641 674.487,551.656 673.861,550.709C671.502,547.139 667.301,545.243 663.063,545.835C652.421,547.324 633.282,550 633.282,550C633.282,550 637.137,538.522 639.007,532.957C639.665,530.999 640,528.947 640,526.881L640,521.793C640,514.565 635.917,507.958 629.452,504.726C626.846,503.423 624.29,502.145 622.495,501.247C620.84,500.42 619.075,499.838 617.253,499.519C605.857,497.523 562.901,490 562.901,490C562.901,490 581.52,483.129 587.892,480.778C589.292,480.261 590.628,479.582 591.87,478.753C595.714,476.191 604.711,470.192 611.503,465.665C616.812,462.126 620,456.168 620,449.788L620,447.904C620,442.843 617.99,437.99 614.411,434.411C608.494,428.494 600,420 600,420C600,420 609.655,418.238 616.803,416.934C621.614,416.056 625.851,413.234 628.514,409.133C629.279,407.956 630.071,406.736 630.818,405.586C633.052,402.148 633.208,397.758 631.224,394.17C626.967,386.468 620,373.864 620,373.864C620,373.864 632.043,374.353 640.869,374.711C646.642,374.946 652.211,372.551 656.012,368.2C656.171,368.019 656.329,367.837 656.488,367.656C660.669,362.87 662.193,356.318 660.553,350.178C658.533,342.614 656.083,333.441 656.083,333.441Z"/>
        </clipPath>
        <g clip-path="url(#_clip2)">
            <g>
                <path d="M718,485C729.975,496.41 742.848,506.894 758.346,514.674C758.754,514.878 759.168,515.069 759.589,515.247C776.778,522.497 792.689,528.627 813.795,527.016C813.936,527.005 814.077,526.997 814.219,526.992C829.944,526.419 848.998,521.677 864.775,514.108C864.923,514.037 865.069,513.963 865.214,513.885C876.591,507.738 885.255,499.58 892,490C892.501,494.03 887.261,503.912 884,507C881.211,510.402 877.822,514.197 870.488,520.577C870.163,520.861 869.82,521.124 869.462,521.366C830.489,547.638 791.052,544.26 758.003,522.002C758.002,522.001 758.001,522.001 758,522C751.173,517.436 744.867,512.453 734.476,504.269C733.826,503.757 733.196,503.219 732.589,502.656C729.557,499.849 720,491 720,491L711,491L718,485Z" style="stroke:black;stroke-width:1px;"/>
                <path d="M802.741,408.175C802.658,407.774 802.309,407.483 801.9,407.475C801.491,407.467 801.13,407.743 801.031,408.14C799.176,415.658 798.441,422.648 799.997,432.483C799.999,432.494 800.001,432.506 800.004,432.518C801.403,439.513 801.71,444.811 806.495,458.985C806.498,458.995 806.502,459.006 806.505,459.017C808.066,464.295 811.331,470.698 814.96,474.953C814.989,474.987 815.021,475.019 815.055,475.048C817.625,477.262 820.121,477.721 823.226,477.553C823.673,477.53 824.03,477.172 824.053,476.726C824.175,473.9 823.542,471.123 821.02,467.528C821.008,467.511 820.996,467.493 820.985,467.475C817.943,462.386 813.938,452.578 811.51,446.026C811.503,446.008 811.497,445.991 811.492,445.973C811.285,445.285 807.185,431.616 807.006,431.02C807.002,431.007 806.999,430.994 806.995,430.981C806.044,427.173 804.204,415.817 802.741,408.175Z" style="stroke:black;stroke-width:1px;"/>
                <path d="M681,423C681.936,417.354 691.683,407.157 696.43,402.473C698.66,400.284 701.207,398.443 703.985,397.013C711.6,393.174 718.813,391.587 726.187,390.717C730.939,390.134 735.76,390.588 740.319,392.049C741.962,392.557 743.547,393.075 745.152,393.669C753.408,396.731 759.692,403.569 762.049,412.052C762.23,412.63 762.389,413.2 762.541,413.749C763.123,415.842 762.604,418.087 761.163,419.712C759.721,421.338 757.554,422.122 755.406,421.794C755.047,421.721 754.679,421.651 754.305,421.572C752.891,421.284 751.665,420.41 750.933,419.165C749.715,417.116 747.685,413.664 745.866,410.571C742.617,405.048 737.034,401.3 730.692,400.385C729.892,400.274 729.005,400.15 728,400C724.546,399.485 714.001,399.925 708,403C704.119,404.988 701.221,407.167 694.798,412.355C694.279,412.774 693.781,413.22 693.309,413.691C690.543,416.432 680.463,426.241 681,423Z" style="stroke:black;stroke-width:1px;"/>
                <g transform="matrix(1,0,0,1,144.021,7.94019)">
                    <path d="M681,423C681.936,417.354 691.683,407.157 696.43,402.473C698.66,400.284 701.207,398.443 703.985,397.013C711.6,393.174 718.813,391.587 726.187,390.717C730.939,390.134 735.76,390.588 740.319,392.049C741.962,392.557 743.547,393.075 745.152,393.669C753.408,396.731 759.692,403.569 762.049,412.052C762.23,412.63 762.389,413.2 762.541,413.749C763.123,415.842 762.604,418.087 761.163,419.712C759.721,421.338 757.554,422.122 755.406,421.794C755.047,421.721 754.679,421.651 754.305,421.572C752.891,421.284 751.665,420.41 750.933,419.165C749.715,417.116 747.685,413.664 745.866,410.571C742.617,405.048 737.034,401.3 730.692,400.385C729.892,400.274 729.005,400.15 728,400C724.546,399.485 714.001,399.925 708,403C704.119,404.988 701.221,407.167 694.798,412.355C694.279,412.774 693.781,413.22 693.309,413.691C690.543,416.432 680.463,426.241 681,423Z" style="stroke:black;stroke-width:1px;"/>
                </g>
            </g>
        </g>
        <path id="Sun2" serif:id="Sun" d="M656.083,333.441C656.083,333.441 668.734,336.91 675.634,338.803C678.505,339.59 681.52,339.695 684.439,339.108C686.014,338.792 687.859,338.421 689.718,338.048C696.121,336.761 701.421,332.289 703.767,326.194C705.516,321.651 707.479,316.55 708.727,313.309C709.568,311.122 710,308.798 710,306.455C710,301.821 710,294.288 710,294.288C710,294.288 721.649,305.844 727.166,311.318C729.035,313.172 731.268,314.619 733.723,315.569C734.975,316.053 736.42,316.611 737.851,317.165C742.505,318.965 747.712,318.642 752.108,316.281C754.213,315.151 756.492,313.928 758.474,312.863C761.944,311 764.752,308.109 766.513,304.587C770.257,297.101 776.559,284.5 776.559,284.5C776.559,284.5 778,290.991 779.017,295.572C779.682,298.57 781.143,301.334 783.245,303.573C784.737,305.164 786.104,306.561 787.351,307.765C791.155,311.424 796.305,313.343 801.576,313.065C805.45,312.855 809.121,312.237 812.555,311.145C813.035,310.992 813.51,310.82 813.977,310.63C820.081,308.104 824.653,304.156 827.974,299.04C827.983,299.027 827.991,299.013 828,299C828.008,298.987 840,280 840,280L840,302.096C840,307.157 842.01,312.01 845.589,315.589C847.024,317.024 848.394,318.394 849.216,319.216C850.222,320.222 851.366,321.081 852.612,321.767C858.297,324.874 864.808,324.189 869.737,322.748C870.876,322.409 871.981,321.965 873.038,321.421C877.604,319.113 895.294,310 895.294,310C895.294,310 893.372,317.26 891.844,323.032C890.656,327.522 891.146,332.292 893.224,336.447C894.055,338.109 894.961,339.922 895.832,341.665C898.462,346.925 903.371,350.678 909.136,351.838C911.763,352.366 914.47,352.911 916.525,353.324C918.822,353.786 921.185,353.821 923.494,353.428C930.064,352.308 943.6,350 943.6,350C943.6,350 936.244,360.817 932.352,366.541C930.802,368.82 929.765,371.407 929.311,374.126C929.182,374.895 929.041,375.741 928.891,376.638C927.247,386.476 933.458,395.921 943.143,398.309C944.938,398.752 946.544,399.148 947.75,399.445C949.244,399.814 950.778,400 952.318,400L965.188,400C965.188,400 958.481,411.414 955.2,416.997C954.034,418.983 953.236,421.163 952.846,423.433C952.597,424.88 952.292,426.657 951.975,428.503C950.763,435.56 953.604,442.703 959.333,446.999C960.084,447.562 960.78,448.084 961.375,448.53C962.675,449.505 964.108,450.29 965.629,450.86C972.095,453.285 990,460 990,460C990,460 977.561,466.341 968.703,470.857C963.238,473.643 959.446,478.886 958.511,484.948C958.124,487.455 957.713,490.118 957.346,492.496C956.603,497.315 957.732,502.236 960.503,506.248C964.555,512.116 970,520 970,520C970,520 963.357,521.57 957.136,523.041C950.551,524.597 945.282,529.525 943.29,535.992C942.614,538.187 941.935,540.389 941.372,542.219C940.475,545.128 940.415,548.23 941.198,551.171C942.563,556.297 944.606,563.97 944.606,563.97C944.606,563.97 935.195,562.452 928.013,561.293C922.893,560.467 917.657,561.761 913.511,564.876C911.631,566.289 909.561,567.845 907.618,569.304C902.822,572.909 900,578.559 900,584.559C900,591.612 900,600 900,600C900,600 891.788,595.894 885.888,592.944C882.073,591.037 877.729,590.462 873.549,591.313C872.004,591.628 870.33,591.968 868.702,592.3C863.185,593.423 858.445,596.925 855.752,601.87C851.592,609.506 845.876,620 845.876,620C845.876,620 838.76,612.913 831.991,606.172C825.149,599.357 814.294,598.729 806.711,604.708C805.718,605.492 804.773,606.237 803.922,606.907C801.351,608.935 799.344,611.59 798.096,614.618C796.311,618.949 793.913,624.764 793.913,624.764C793.913,624.764 788.533,615.189 784.464,607.946C781.641,602.921 776.697,599.441 771.013,598.479C769.293,598.188 767.48,597.881 765.727,597.584C759.408,596.514 752.974,598.689 748.599,603.372C741.982,610.455 733.065,620 733.065,620C733.065,620 731.12,607.309 730.329,602.146C730.11,600.72 729.731,599.323 729.197,597.983C728.398,595.972 727.093,592.692 725.714,589.227C722.383,580.854 713.647,575.952 704.765,577.473C700.166,578.26 695.596,579.042 692.786,579.523C690.939,579.839 689.148,580.426 687.472,581.264C682.093,583.954 670,590 670,590C670,590 674.615,576.156 677.574,567.277C679.106,562.683 678.441,557.64 675.771,553.6C675.138,552.641 674.487,551.656 673.861,550.709C671.502,547.139 667.301,545.243 663.063,545.835C652.421,547.324 633.282,550 633.282,550C633.282,550 637.137,538.522 639.007,532.957C639.665,530.999 640,528.947 640,526.881L640,521.793C640,514.565 635.917,507.958 629.452,504.726C626.846,503.423 624.29,502.145 622.495,501.247C620.84,500.42 619.075,499.838 617.253,499.519C605.857,497.523 562.901,490 562.901,490C562.901,490 581.52,483.129 587.892,480.778C589.292,480.261 590.628,479.582 591.87,478.753C595.714,476.191 604.711,470.192 611.503,465.665C616.812,462.126 620,456.168 620,449.788L620,447.904C620,442.843 617.99,437.99 614.411,434.411C608.494,428.494 600,420 600,420C600,420 609.655,418.238 616.803,416.934C621.614,416.056 625.851,413.234 628.514,409.133C629.279,407.956 630.071,406.736 630.818,405.586C633.052,402.148 633.208,397.758 631.224,394.17C626.967,386.468 620,373.864 620,373.864C620,373.864 632.043,374.353 640.869,374.711C646.642,374.946 652.211,372.551 656.012,368.2C656.171,368.019 656.329,367.837 656.488,367.656C660.669,362.87 662.193,356.318 660.553,350.178C658.533,342.614 656.083,333.441 656.083,333.441Z" style="fill:none;stroke:black;stroke-width:1px;"/>
        <g id="Label">
            <g transform="matrix(1.07895,0,0,1.10526,-323.947,-255.789)">
                <path d="M963.728,1061.02C962.154,1060.02 960.654,1058.94 959.23,1057.78C957.805,1056.62 956.503,1055.39 955.322,1054.08L965.4,1038.25C966.067,1039.18 966.839,1040.06 967.715,1040.89C968.592,1041.73 969.602,1042.51 970.747,1043.24C972.643,1044.45 974.405,1044.98 976.031,1044.83C977.657,1044.68 979.338,1043.74 981.072,1042.01C982.806,1040.27 984.811,1037.61 987.089,1034.04L1033.76,960.73L1052.32,972.55L1006.24,1044.94C1001.2,1052.85 996.361,1058.46 991.707,1061.79C987.054,1065.11 982.443,1066.59 977.877,1066.22C973.31,1065.85 968.593,1064.12 963.728,1061.02Z" style="fill-rule:nonzero;"/>
                <path d="M1070.19,1002.37C1076.74,1005.26 1081.07,1009.51 1083.16,1015.12C1085.25,1020.72 1084.52,1027.56 1080.95,1035.63L1061.87,1078.87L1047.96,1072.73L1048.55,1062.56L1048.2,1062.41C1045.83,1064 1043.53,1065.19 1041.31,1065.97C1039.09,1066.75 1036.82,1067.06 1034.5,1066.9C1032.19,1066.73 1029.65,1066.04 1026.9,1064.83C1023.13,1063.16 1020.56,1060.8 1019.18,1057.73C1017.8,1054.67 1017.31,1051.28 1017.72,1047.56C1018.13,1043.85 1019.13,1040.21 1020.7,1036.64C1023.82,1029.58 1028.04,1025.14 1033.37,1023.32C1038.69,1021.49 1045.02,1022.04 1052.36,1024.95L1061.12,1028.41L1061.87,1026.72C1063.05,1024.04 1063.43,1021.8 1063,1019.99C1062.57,1018.17 1061.27,1016.79 1059.1,1015.83C1057.2,1014.99 1054.91,1014.46 1052.26,1014.24C1049.6,1014.01 1046.42,1014.08 1042.74,1014.45L1044.05,997.923C1048.11,997.444 1052.35,997.563 1056.76,998.282C1061.17,999.001 1065.65,1000.36 1070.19,1002.37ZM1055.6,1040.92L1051.89,1039.56C1049.24,1038.53 1046.95,1038.41 1045.02,1039.2C1043.1,1040 1041.55,1041.72 1040.38,1044.36C1039.39,1046.61 1039.04,1048.46 1039.31,1049.93C1039.59,1051.4 1040.51,1052.48 1042.06,1053.16C1043.96,1054 1045.95,1053.85 1048.04,1052.7C1050.12,1051.56 1051.78,1049.57 1053.03,1046.74L1055.6,1040.92Z" style="fill-rule:nonzero;"/>
                <path d="M1101.74,1070.32L1101.95,1071.9C1100.02,1076.29 1098.06,1080.4 1096.07,1084.24C1094.08,1088.08 1092.09,1091.63 1090.08,1094.89C1088.08,1098.16 1086.03,1101.14 1083.93,1103.84L1067.12,1098.99C1068.66,1095.95 1070.38,1092.33 1072.27,1088.13C1074.17,1083.93 1075.98,1079.74 1077.72,1075.54C1079.47,1071.34 1080.87,1067.69 1081.94,1064.6L1101.74,1070.32Z" style="fill-rule:nonzero;"/>
                <path d="M1159.96,999.536L1158.2,1021.86C1158.1,1023.21 1157.9,1025.03 1157.62,1027.3C1157.33,1029.58 1156.95,1032.33 1156.49,1035.57L1157.12,1035.62C1159.4,1032.06 1161.91,1029.55 1164.64,1028.11C1167.37,1026.66 1170.34,1026.07 1173.55,1026.32C1179.93,1026.82 1184.74,1030.52 1187.96,1037.41C1191.19,1044.3 1192.35,1053.49 1191.44,1064.99C1190.84,1072.64 1189.49,1079.2 1187.38,1084.65C1185.27,1090.1 1182.51,1094.22 1179.1,1097.01C1175.69,1099.81 1171.72,1101.03 1167.2,1100.67C1163.98,1100.42 1161.34,1099.66 1159.27,1098.39C1157.2,1097.12 1155.03,1094.72 1152.76,1091.18L1151.74,1091.1L1148.08,1097.89L1131.15,1096.56L1138.9,997.881L1159.96,999.536ZM1164.46,1043.79C1162.6,1043.65 1161.04,1044.11 1159.78,1045.18C1158.53,1046.25 1157.53,1047.98 1156.79,1050.37C1156.05,1052.76 1155.53,1055.85 1155.23,1059.66L1154.91,1063.78C1154.4,1070.21 1154.67,1074.9 1155.72,1077.85C1156.76,1080.81 1158.7,1082.39 1161.53,1082.62C1163.82,1082.8 1165.69,1081.28 1167.15,1078.08C1168.62,1074.88 1169.62,1069.87 1170.15,1063.06C1170.64,1056.81 1170.42,1052.08 1169.48,1048.88C1168.54,1045.68 1166.87,1043.98 1164.46,1043.79Z" style="fill-rule:nonzero;"/>
                <path d="M1216.8,1026.95L1220.54,1098.93L1199.45,1100.03L1195.71,1028.05L1216.8,1026.95ZM1204.75,998.532C1208.65,998.33 1211.54,999.114 1213.41,1000.88C1215.29,1002.66 1216.32,1005.36 1216.51,1009C1216.7,1012.65 1215.91,1015.43 1214.14,1017.35C1212.37,1019.26 1209.62,1020.32 1205.89,1020.51C1202.21,1020.71 1199.38,1019.94 1197.4,1018.22C1195.42,1016.49 1194.34,1013.81 1194.15,1010.17C1193.95,1006.44 1194.7,1003.62 1196.38,1001.71C1198.07,999.792 1200.86,998.734 1204.75,998.532Z" style="fill-rule:nonzero;"/>
                <path d="M1258.89,1076.75C1260.19,1076.55 1261.57,1076.11 1263.03,1075.42C1264.49,1074.74 1266.02,1073.89 1267.62,1072.87L1270.21,1089.33C1268.11,1090.99 1265.85,1092.36 1263.42,1093.43C1260.99,1094.5 1258.31,1095.26 1255.37,1095.72C1250.72,1096.45 1246.81,1096.16 1243.64,1094.83C1240.47,1093.51 1237.93,1091.12 1236.01,1087.66C1234.09,1084.21 1232.69,1079.69 1231.82,1074.12L1227,1043.52L1219.77,1044.66L1218.03,1033.6L1226.23,1026.77L1228.78,1011.04L1242.92,1008.81L1245.16,1023.08L1258.55,1020.97L1261.25,1038.13L1247.86,1040.23L1252.64,1070.59C1253,1072.89 1253.7,1074.56 1254.72,1075.61C1255.74,1076.65 1257.13,1077.03 1258.89,1076.75Z" style="fill-rule:nonzero;"/>
                <path d="M1301.63,1065.79C1302.9,1065.42 1304.21,1064.82 1305.58,1063.96C1306.94,1063.11 1308.36,1062.08 1309.82,1060.86L1314.4,1076.89C1312.52,1078.8 1310.44,1080.43 1308.16,1081.78C1305.88,1083.14 1303.31,1084.23 1300.46,1085.05C1295.93,1086.34 1292.02,1086.52 1288.71,1085.59C1285.4,1084.67 1282.58,1082.6 1280.26,1079.41C1277.93,1076.21 1275.99,1071.9 1274.44,1066.48L1265.92,1036.69L1258.89,1038.71L1255.81,1027.94L1263.11,1020.16L1263.72,1004.24L1277.48,1000.31L1281.45,1014.19L1294.48,1010.47L1299.26,1027.16L1286.23,1030.89L1294.68,1060.43C1295.32,1062.67 1296.21,1064.25 1297.35,1065.16C1298.49,1066.07 1299.92,1066.28 1301.63,1065.79Z" style="fill-rule:nonzero;"/>
                <path d="M1316.64,999.471C1321.86,997.107 1326.84,996.243 1331.6,996.879C1336.36,997.516 1340.72,999.613 1344.69,1003.17C1348.65,1006.73 1352.09,1011.71 1355,1018.13L1359.57,1028.21L1328.22,1042.42C1330.22,1046.82 1332.58,1049.6 1335.32,1050.76C1338.06,1051.92 1341.32,1051.64 1345.1,1049.92C1348.12,1048.56 1350.74,1046.9 1352.98,1044.95C1355.22,1043.01 1357.42,1040.42 1359.59,1037.2L1366.71,1052.91C1364.64,1055.85 1362.16,1058.42 1359.24,1060.62C1356.33,1062.83 1352.98,1064.79 1349.2,1066.5C1342.86,1069.38 1337.11,1070.43 1331.95,1069.68C1326.79,1068.92 1322.12,1066.46 1317.95,1062.3C1313.79,1058.13 1310.06,1052.42 1306.76,1045.16C1303.44,1037.82 1301.58,1031.18 1301.19,1025.23C1300.8,1019.29 1301.88,1014.14 1304.45,1009.78C1307.02,1005.43 1311.08,1001.99 1316.64,999.471ZM1323.83,1014.09C1321.82,1015 1320.55,1016.63 1320,1018.97C1319.46,1021.32 1320.16,1024.63 1322.1,1028.92L1335.66,1022.77C1334.4,1019.99 1333.11,1017.86 1331.79,1016.39C1330.47,1014.92 1329.14,1014.01 1327.8,1013.69C1326.47,1013.36 1325.14,1013.5 1323.83,1014.09Z" style="fill-rule:nonzero;"/>
                <path d="M1379.98,1010.7L1364.45,1020.3L1330.15,970.754L1350.88,957.941L1379.98,1010.7ZM1373.62,1040.81C1371.57,1037.5 1370.86,1034.39 1371.49,1031.51C1372.12,1028.62 1374.14,1026.13 1377.53,1024.04C1380.74,1022.05 1383.76,1021.43 1386.59,1022.17C1389.42,1022.92 1391.86,1024.95 1393.91,1028.27C1395.94,1031.55 1396.63,1034.64 1395.97,1037.54C1395.32,1040.43 1393.44,1042.84 1390.34,1044.76C1387.17,1046.72 1384.09,1047.38 1381.12,1046.72C1378.15,1046.07 1375.65,1044.1 1373.62,1040.81Z" style="fill-rule:nonzero;"/>
            </g>
            <g transform="matrix(0.894467,0,0,0.894467,-104.915,-104.119)">
                <path d="M914.48,458.404L895.632,478.23L812.337,399.049L850.249,359.167L867.056,375.144L847.992,395.199L865.824,412.151L883.48,393.578L900.288,409.555L882.631,428.128L914.48,458.404Z" style="fill-rule:nonzero;"/>
                <path d="M916.806,337.012C922.559,332.894 928.396,330.649 934.317,330.278C940.238,329.906 946.029,331.4 951.689,334.76C957.348,338.12 962.71,343.336 967.774,350.41L975.736,361.532L941.156,386.287C944.634,391.144 948.17,393.946 951.765,394.692C955.36,395.437 959.246,394.315 963.422,391.326C966.746,388.946 969.53,386.309 971.775,383.412C974.02,380.516 976.072,376.856 977.931,372.431L990.332,389.753C988.533,393.812 986.133,397.528 983.134,400.9C980.134,404.272 976.546,407.453 972.37,410.442C965.381,415.445 958.668,418.108 952.229,418.432C945.79,418.755 939.544,416.895 933.49,412.85C927.436,408.805 921.542,402.777 915.807,394.766C910.011,386.67 906.162,379.065 904.26,371.951C902.358,364.838 902.44,358.334 904.505,352.441C906.57,346.548 910.67,341.405 916.806,337.012ZM929.032,353.009C926.816,354.596 925.659,356.874 925.562,359.844C925.464,362.814 927.109,366.664 930.495,371.394L945.452,360.686C943.255,357.618 941.18,355.35 939.226,353.881C937.272,352.411 935.447,351.64 933.75,351.565C932.053,351.491 930.48,351.972 929.032,353.009Z" style="fill-rule:nonzero;"/>
                <path d="M1009.55,284.889C1010.5,284.449 1011.5,284.047 1012.54,283.68C1013.58,283.314 1014.93,282.981 1016.58,282.681L1026.42,309.05C1025.31,309.156 1024.13,309.412 1022.88,309.819C1021.62,310.225 1020.23,310.78 1018.71,311.482C1016.38,312.559 1014.53,313.844 1013.17,315.337C1011.81,316.831 1010.91,318.502 1010.47,320.353C1010.02,322.203 1010,324.26 1010.42,326.524C1010.83,328.788 1011.64,331.252 1012.88,333.916L1031.62,374.526L1007.93,385.465L970.598,304.602L988.726,296.233L998.115,307.57L999.257,307.043C999.198,304.415 999.467,301.621 1000.06,298.662C1000.66,295.702 1001.72,292.975 1003.25,290.478C1004.79,287.982 1006.88,286.119 1009.55,284.889Z" style="fill-rule:nonzero;"/>
                <path d="M1084.11,261.249C1091.58,259.357 1098.09,260.652 1103.66,265.133C1109.23,269.615 1113.29,276.885 1115.84,286.944L1130.07,343.103L1104.77,349.513L1092.59,301.431C1091.14,295.742 1089.6,291.552 1087.94,288.863C1086.29,286.174 1083.88,285.228 1080.74,286.026C1077.18,286.927 1075.26,289.415 1074.96,293.49C1074.67,297.564 1075.76,304.478 1078.23,314.232L1088.24,353.703L1062.94,360.114L1041.06,273.779L1060.87,268.759L1066.39,278.713L1067.84,278.346C1068.47,275.268 1069.47,272.596 1070.84,270.329C1072.21,268.062 1074,266.175 1076.22,264.668C1078.43,263.161 1081.06,262.022 1084.11,261.249Z" style="fill-rule:nonzero;"/>
                <path d="M1185.42,271.831L1170.99,272.713L1175.11,340.19L1149.06,341.782L1144.94,274.304L1135.13,274.903L1134.29,261.094L1143.65,253.276L1143.56,251.786C1143.08,243.887 1143.6,237.477 1145.11,232.554C1146.62,227.631 1149.15,223.946 1152.7,221.498C1156.25,219.049 1160.85,217.652 1166.5,217.307C1170.06,217.09 1173.27,217.222 1176.13,217.703C1179,218.185 1182.46,219.062 1186.53,220.337L1182.52,239.719C1181.03,239.338 1179.59,239.045 1178.21,238.84C1176.84,238.636 1175.47,238.575 1174.11,238.658C1172.33,238.767 1171.06,239.566 1170.31,241.055C1169.57,242.545 1169.29,244.885 1169.48,248.076L1169.68,251.293L1184.12,250.411L1185.42,271.831Z" style="fill-rule:nonzero;"/>
                <path d="M1277.41,257.794L1267.42,346.296L1247.27,344.021L1245.45,332.82L1244.2,332.679C1242.48,335.28 1240.58,337.399 1238.5,339.036C1236.41,340.673 1234.1,341.809 1231.55,342.444C1229,343.079 1226.13,343.218 1222.95,342.859C1217.8,342.277 1213.53,340.503 1210.15,337.537C1206.76,334.571 1204.38,330.571 1203,325.537C1201.61,320.502 1201.31,314.548 1202.09,307.674L1208.59,250.027L1234.53,252.954L1228.98,302.087C1228.31,308.023 1228.31,312.559 1228.99,315.694C1229.66,318.829 1231.28,320.541 1233.83,320.829C1236.95,321.181 1239.33,320.474 1240.95,318.705C1242.57,316.937 1243.78,314.331 1244.56,310.886C1245.35,307.441 1246,303.349 1246.54,298.61L1251.48,254.867L1277.41,257.794Z" style="fill-rule:nonzero;"/>
                <path d="M1340.68,340.432C1338.73,346.521 1335.96,351.246 1332.35,354.604C1328.75,357.963 1324.46,359.975 1319.49,360.641C1314.52,361.306 1308.98,360.665 1302.89,358.718C1298.75,357.393 1294.8,355.742 1291.03,353.766C1287.26,351.79 1283.68,349.298 1280.29,346.29L1287.79,322.855C1290.29,325.692 1293.18,328.391 1296.46,330.953C1299.74,333.515 1303.28,335.403 1307.08,336.616C1309.37,337.35 1311.22,337.514 1312.61,337.108C1314.01,336.701 1314.98,335.624 1315.54,333.877C1315.85,332.929 1315.9,331.942 1315.71,330.917C1315.51,329.892 1314.71,328.468 1313.32,326.645C1311.92,324.823 1309.56,322.308 1306.24,319.1C1303.35,316.251 1301.14,313.191 1299.6,309.92C1298.06,306.649 1297.21,303.2 1297.05,299.572C1296.89,295.945 1297.45,292.134 1298.73,288.141C1301.25,280.255 1305.61,274.881 1311.81,272.022C1318,269.162 1325.52,269.144 1334.35,271.97C1338.75,273.375 1342.69,275.311 1346.19,277.78C1349.7,280.248 1353.09,283.301 1356.39,286.94L1344.29,303.869C1342.29,301.357 1340.06,299.023 1337.62,296.865C1335.17,294.707 1332.47,293.157 1329.53,292.215C1327.78,291.657 1326.38,291.566 1325.32,291.943C1324.27,292.321 1323.52,293.184 1323.09,294.531C1322.81,295.43 1322.78,296.329 1323.01,297.23C1323.25,298.13 1324.04,299.413 1325.37,301.079C1326.71,302.745 1328.83,305.226 1331.74,308.521C1334.58,311.52 1336.9,314.657 1338.72,317.933C1340.53,321.209 1341.66,324.692 1342.1,328.382C1342.54,332.073 1342.07,336.089 1340.68,340.432Z" style="fill-rule:nonzero;"/>
                <path d="M1405.75,303.266L1366.95,383.432L1343.46,372.062L1382.26,291.895L1405.75,303.266ZM1409.62,265.316C1413.96,267.417 1416.62,269.984 1417.6,273.018C1418.57,276.053 1418.08,279.598 1416.12,283.655C1414.15,287.712 1411.64,290.252 1408.59,291.276C1405.53,292.299 1401.92,291.807 1397.77,289.797C1393.67,287.811 1391.06,285.296 1389.94,282.251C1388.82,279.207 1389.25,275.657 1391.21,271.6C1393.22,267.449 1395.71,264.839 1398.67,263.769C1401.63,262.7 1405.28,263.216 1409.62,265.316Z" style="fill-rule:nonzero;"/>
                <path d="M1464.67,394.108C1461.37,398.77 1457.63,402.98 1453.46,406.738C1449.3,410.496 1444.77,413.375 1439.89,415.376C1435,417.376 1429.9,418.116 1424.59,417.596C1419.27,417.076 1413.82,414.833 1408.21,410.866C1403.08,407.232 1399.4,403.04 1397.18,398.288C1394.96,393.536 1393.91,388.527 1394.05,383.26C1394.18,377.993 1395.27,372.694 1397.31,367.364C1399.35,362.034 1402.06,356.974 1405.45,352.184C1410.39,345.212 1415.87,339.604 1421.89,335.36C1427.91,331.116 1434.3,328.878 1441.04,328.645C1447.79,328.413 1454.69,330.795 1461.75,335.791C1467.65,339.97 1471.77,345.084 1474.1,351.133C1476.43,357.182 1476.86,363.857 1475.38,371.158C1473.9,378.46 1470.33,386.11 1464.67,394.108ZM1426.76,367.656C1423.71,371.976 1421.42,375.816 1419.91,379.176C1418.4,382.536 1417.71,385.389 1417.85,387.734C1417.99,390.079 1419,391.917 1420.88,393.25C1422.89,394.673 1424.99,395.055 1427.19,394.397C1429.39,393.739 1431.81,392.095 1434.44,389.464C1437.07,386.834 1439.96,383.294 1443.11,378.846C1446.26,374.398 1448.61,370.538 1450.16,367.266C1451.7,363.994 1452.41,361.222 1452.29,358.951C1452.16,356.679 1451.09,354.831 1449.08,353.408C1446.26,351.409 1443.05,351.574 1439.44,353.901C1435.84,356.228 1431.61,360.813 1426.76,367.656Z" style="fill-rule:nonzero;"/>
                <path d="M1546.07,412.187C1551.24,417.903 1553.14,424.27 1551.79,431.288C1550.43,438.306 1545.9,445.293 1538.2,452.25L1495.21,491.09L1477.72,471.726L1514.52,438.472C1518.88,434.537 1521.86,431.209 1523.46,428.489C1525.06,425.769 1524.78,423.204 1522.6,420.793C1520.14,418.071 1517.04,417.534 1513.3,419.181C1509.56,420.828 1503.96,425.024 1496.49,431.77L1466.28,459.069L1448.79,439.705L1514.87,379.995L1528.57,395.16L1522.36,404.696L1523.36,405.804C1526.37,404.918 1529.2,404.551 1531.84,404.704C1534.49,404.856 1537,405.558 1539.36,406.81C1541.73,408.062 1543.97,409.854 1546.07,412.187Z" style="fill-rule:nonzero;"/>
                <path d="M1543.36,491.554L1549.16,488.069C1552.16,486.259 1554.98,484.992 1557.61,484.27C1560.23,483.548 1562.93,483.284 1565.71,483.478C1568.48,483.672 1571.56,484.284 1574.93,485.313C1577.7,486.155 1580.05,486.758 1581.98,487.124C1583.91,487.491 1585.67,487.536 1587.25,487.259C1588.82,486.983 1590.49,486.318 1592.24,485.265C1594.35,483.995 1595.59,482.375 1595.97,480.407C1596.34,478.438 1595.72,476.107 1594.1,473.412C1592.67,471.032 1590.51,468.815 1587.62,466.761C1584.73,464.706 1581.14,462.801 1576.84,461.045L1590.06,443.368C1595.87,445.805 1600.87,448.711 1605.07,452.085C1609.27,455.459 1612.68,459.324 1615.31,463.679C1620.71,472.66 1622.59,480.823 1620.96,488.168C1619.32,495.512 1614.76,501.441 1607.26,505.953C1603.31,508.331 1599.58,509.886 1596.07,510.618C1592.57,511.35 1589.05,511.478 1585.52,511.002C1582,510.526 1578.19,509.647 1574.12,508.367C1570.68,507.32 1568.05,506.656 1566.23,506.375C1564.41,506.094 1562.93,506.139 1561.81,506.509C1560.69,506.879 1559.45,507.469 1558.11,508.279L1554.67,510.346L1543.36,491.554ZM1517.8,502.439C1521.93,499.953 1525.79,499.146 1529.38,500.018C1532.96,500.89 1535.98,503.369 1538.44,507.455C1540.84,511.451 1541.57,515.203 1540.62,518.709C1539.67,522.215 1537.13,525.211 1533,527.697C1528.92,530.156 1525.1,530.972 1521.54,530.145C1517.98,529.318 1515.02,526.929 1512.64,522.977C1510.29,519.071 1509.54,515.286 1510.39,511.622C1511.25,507.959 1513.72,504.897 1517.8,502.439Z" style="fill-rule:nonzero;"/>
            </g>
            <path d="M1228,664L1214.89,664" style="fill:none;stroke:black;stroke-width:1px;"/>
        </g>
        <g id="PV">
            <path d="M1202.94,684L1213.1,668L1213,684L1202.94,684Z" style="fill:white;stroke:black;stroke-width:1px;"/>
            <ellipse cx="1221" cy="779" rx="22" ry="2" style="fill:white;stroke:black;stroke-width:1px;"/>
            <path d="M1213,777L1228,777L1228,664L1235,664L1238.8,624L1213.1,667L1213,777Z" style="fill:white;stroke:black;stroke-width:1px;"/>
            <path d="M1228,664L1214.89,664" style="fill:none;stroke:black;stroke-width:1px;"/>
            <g transform="matrix(0.790194,1.80411e-16,-0.53569,0.883034,736.321,0.323105)">
                <g transform="matrix(0.875187,0,0,1.09398,108.06,-55.7456)">
                    <rect x="865.773" y="593.144" width="274.227" height="274.227" style="fill:white;stroke:black;stroke-width:1.46px;"/>
                </g>
                <g transform="matrix(0.846154,0,0,1.07692,137.971,-43.0094)">
                    <rect x="871.948" y="600" width="260" height="260" style="fill:white;stroke:black;stroke-width:1.48px;"/>
                </g>
                <g>
                    <g transform="matrix(0.211538,0,0,0.215385,691.322,473.914)">
                        <rect x="871.948" y="600" width="260" height="260" style="fill:white;stroke:black;stroke-width:7.17px;"/>
                    </g>
                    <g transform="matrix(0.211538,0,0,0.215385,746.322,473.914)">
                        <rect x="871.948" y="600" width="260" height="260" style="fill:white;stroke:black;stroke-width:7.17px;"/>
                    </g>
                    <g transform="matrix(0.211538,0,0,0.215385,801.322,473.914)">
                        <rect x="871.948" y="600" width="260" height="260" style="fill:white;stroke:black;stroke-width:7.17px;"/>
                    </g>
                    <g transform="matrix(0.211538,0,0,0.215385,856.322,473.914)">
                        <rect x="871.948" y="600" width="260" height="260" style="fill:white;stroke:black;stroke-width:7.17px;"/>
                    </g>
                </g>
                <g transform="matrix(1,0,0,1,0,56)">
                    <g transform="matrix(0.211538,0,0,0.215385,691.322,473.914)">
                        <rect x="871.948" y="600" width="260" height="260" style="fill:white;stroke:black;stroke-width:7.17px;"/>
                    </g>
                    <g transform="matrix(0.211538,0,0,0.215385,746.322,473.914)">
                        <rect x="871.948" y="600" width="260" height="260" style="fill:white;stroke:black;stroke-width:7.17px;"/>
                    </g>
                    <g transform="matrix(0.211538,0,0,0.215385,801.322,473.914)">
                        <rect x="871.948" y="600" width="260" height="260" style="fill:white;stroke:black;stroke-width:7.17px;"/>
                    </g>
                    <g transform="matrix(0.211538,0,0,0.215385,856.322,473.914)">
                        <rect x="871.948" y="600" width="260" height="260" style="fill:white;stroke:black;stroke-width:7.17px;"/>
                    </g>
                </g>
                <g transform="matrix(1,0,0,1,0,112)">
                    <g transform="matrix(0.211538,0,0,0.215385,691.322,473.914)">
                        <rect x="871.948" y="600" width="260" height="260" style="fill:white;stroke:black;stroke-width:7.17px;"/>
                    </g>
                    <g transform="matrix(0.211538,0,0,0.215385,746.322,473.914)">
                        <rect x="871.948" y="600" width="260" height="260" style="fill:white;stroke:black;stroke-width:7.17px;"/>
                    </g>
                    <g transform="matrix(0.211538,0,0,0.215385,801.322,473.914)">
                        <rect x="871.948" y="600" width="260" height="260" style="fill:white;stroke:black;stroke-width:7.17px;"/>
                    </g>
                    <g transform="matrix(0.211538,0,0,0.215385,856.322,473.914)">
                        <rect x="871.948" y="600" width="260" height="260" style="fill:white;stroke:black;stroke-width:7.17px;"/>
                    </g>
                </g>
                <g transform="matrix(1,0,0,1,0,168)">
                    <g transform="matrix(0.211538,0,0,0.215385,691.322,473.914)">
                        <rect x="871.948" y="600" width="260" height="260" style="fill:white;stroke:black;stroke-width:7.17px;"/>
                    </g>
                    <g transform="matrix(0.211538,0,0,0.215385,746.322,473.914)">
                        <rect x="871.948" y="600" width="260" height="260" style="fill:white;stroke:black;stroke-width:7.17px;"/>
                    </g>
                    <g transform="matrix(0.211538,0,0,0.215385,801.322,473.914)">
                        <rect x="871.948" y="600" width="260" height="260" style="fill:white;stroke:black;stroke-width:7.17px;"/>
                    </g>
                    <g transform="matrix(0.211538,0,0,0.215385,856.322,473.914)">
                        <rect x="871.948" y="600" width="260" height="260" style="fill:white;stroke:black;stroke-width:7.17px;"/>
                    </g>
                </g>
                <g transform="matrix(1,0,0,1,0,224)">
                    <g transform="matrix(0.211538,0,0,0.215385,691.322,473.914)">
                        <rect x="871.948" y="600" width="260" height="260" style="fill:white;stroke:black;stroke-width:7.17px;"/>
                    </g>
                    <g transform="matrix(0.211538,0,0,0.215385,746.322,473.914)">
                        <rect x="871.948" y="600" width="260" height="260" style="fill:white;stroke:black;stroke-width:7.17px;"/>
                    </g>
                    <g transform="matrix(0.211538,0,0,0.215385,801.322,473.914)">
                        <rect x="871.948" y="600" width="260" height="260" style="fill:white;stroke:black;stroke-width:7.17px;"/>
                    </g>
                    <g transform="matrix(0.211538,0,0,0.215385,856.322,473.914)">
                        <rect x="871.948" y="600" width="260" height="260" style="fill:white;stroke:black;stroke-width:7.17px;"/>
                    </g>
                </g>
                <g transform="matrix(1.26551,-2.58555e-16,0.76772,1.13246,-932.071,-0.365904)">
                    <path d="M942,789L948,796L1136,796L1131.65,789L942,789Z" style="fill:white;stroke:black;stroke-width:1px;"/>
                </g>
                <g transform="matrix(1.26551,-2.58555e-16,0.76772,1.13246,-932.071,-0.365904)">
                    <path d="M1292.35,534.385L1292.35,524.09L1131.65,789L1136,796L1292.35,534.385Z" style="fill:white;stroke:black;stroke-width:1px;"/>
                </g>
            </g>
        </g>
        <g id="Sunrays">
            <g transform="matrix(1.21492,0.0462871,-0.0335486,0.880568,-184.769,8.67552)">
                <path d="M960.144,562.655L960.111,559.009L1104.22,555.117L1104.22,545.345L1120,560.379L1104.22,575.412L1104.22,565.641L960.144,562.655Z" style="fill:rgb(255,209,0);stroke:black;stroke-width:0.94px;"/>
            </g>
            <g transform="matrix(0.762843,0.482728,-0.503307,0.795363,505.092,-344.403)">
                <path d="M960.144,562.655L960.111,559.009L1104.22,555.117L1104.22,545.345L1120,560.379L1104.22,575.412L1104.22,565.641L960.144,562.655Z" style="fill:rgb(255,209,0);stroke:black;stroke-width:1.08px;"/>
            </g>
            <g transform="matrix(0.581976,0.894301,-0.821525,0.534616,830.387,-574.345)">
                <path d="M960.144,562.655L960.111,559.009L1104.22,555.117L1104.22,545.345L1120,560.379L1104.22,575.412L1104.22,565.641L960.144,562.655Z" style="fill:rgb(255,209,0);stroke:black;stroke-width:0.98px;"/>
            </g>
        </g>
    </g>
</svg>
