<?xml version="1.0" encoding="UTF-8" standalone="no"?>
<!DOCTYPE svg PUBLIC "-//W3C//DTD SVG 1.1//EN" "http://www.w3.org/Graphics/SVG/1.1/DTD/svg11.dtd">
<svg width="100%" height="100%" viewBox="0 0 937 937" version="1.1" xmlns="http://www.w3.org/2000/svg" xmlns:xlink="http://www.w3.org/1999/xlink" xml:space="preserve" xmlns:serif="http://www.serif.com/" style="fill-rule:evenodd;clip-rule:evenodd;stroke-linecap:round;stroke-linejoin:round;stroke-miterlimit:1.5;">
    <g transform="matrix(1,0,0,1,-491.5,-71.5)">
        <g transform="matrix(2.31942,0,0,2.75294,-1308.91,-1084.24)">
            <ellipse cx="978.225" cy="590" rx="201.775" ry="170" style="fill:rgb(255,245,0);stroke:black;stroke-width:0.39px;"/>
        </g>
        <path id="Sun" d="M656.083,333.441C656.083,333.441 668.734,336.91 675.634,338.803C678.505,339.59 681.52,339.695 684.439,339.108C686.014,338.792 687.859,338.421 689.718,338.048C696.121,336.761 701.421,332.289 703.767,326.194C705.516,321.651 707.479,316.55 708.727,313.309C709.568,311.122 710,308.798 710,306.455C710,301.821 710,294.288 710,294.288C710,294.288 721.649,305.844 727.166,311.318C729.035,313.172 731.268,314.619 733.723,315.569C734.975,316.053 736.42,316.611 737.851,317.165C742.505,318.965 747.712,318.642 752.108,316.281C754.213,315.151 756.492,313.928 758.474,312.863C761.944,311 764.752,308.109 766.513,304.587C770.257,297.101 776.559,284.5 776.559,284.5C776.559,284.5 778,290.991 779.017,295.572C779.682,298.57 781.143,301.334 783.245,303.573C784.737,305.164 786.104,306.561 787.351,307.765C791.155,311.424 796.305,313.343 801.576,313.065C805.45,312.855 809.121,312.237 812.555,311.145C813.035,310.992 813.51,310.82 813.977,310.63C820.081,308.104 824.653,304.156 827.974,299.04C827.983,299.027 827.991,299.013 828,299C828.008,298.987 840,280 840,280L840,302.096C840,307.157 842.01,312.01 845.589,315.589C847.024,317.024 848.394,318.394 849.216,319.216C850.222,320.222 851.366,321.081 852.612,321.767C858.297,324.874 864.808,324.189 869.737,322.748C870.876,322.409 871.981,321.965 873.038,321.421C877.604,319.113 895.294,310 895.294,310C895.294,310 893.372,317.26 891.844,323.032C890.656,327.522 891.146,332.292 893.224,336.447C894.055,338.109 894.961,339.922 895.832,341.665C898.462,346.925 903.371,350.678 909.136,351.838C911.763,352.366 914.47,352.911 916.525,353.324C918.822,353.786 921.185,353.821 923.494,353.428C930.064,352.308 943.6,350 943.6,350C943.6,350 936.244,360.817 932.352,366.541C930.802,368.82 929.765,371.407 929.311,374.126C929.182,374.895 929.041,375.741 928.891,376.638C927.247,386.476 933.458,395.921 943.143,398.309C944.938,398.752 946.544,399.148 947.75,399.445C949.244,399.814 950.778,400 952.318,400L965.188,400C965.188,400 958.481,411.414 955.2,416.997C954.034,418.983 953.236,421.163 952.846,423.433C952.597,424.88 952.292,426.657 951.975,428.503C950.763,435.56 953.604,442.703 959.333,446.999C960.084,447.562 960.78,448.084 961.375,448.53C962.675,449.505 964.108,450.29 965.629,450.86C972.095,453.285 990,460 990,460C990,460 977.561,466.341 968.703,470.857C963.238,473.643 959.446,478.886 958.511,484.948C958.124,487.455 957.713,490.118 957.346,492.496C956.603,497.315 957.732,502.236 960.503,506.248C964.555,512.116 970,520 970,520C970,520 963.357,521.57 957.136,523.041C950.551,524.597 945.282,529.525 943.29,535.992C942.614,538.187 941.935,540.389 941.372,542.219C940.475,545.128 940.415,548.23 941.198,551.171C942.563,556.297 944.606,563.97 944.606,563.97C944.606,563.97 935.195,562.452 928.013,561.293C922.893,560.467 917.657,561.761 913.511,564.876C911.631,566.289 909.561,567.845 907.618,569.304C902.822,572.909 900,578.559 900,584.559C900,591.612 900,600 900,600C900,600 891.788,595.894 885.888,592.944C882.073,591.037 877.729,590.462 873.549,591.313C872.004,591.628 870.33,591.968 868.702,592.3C863.185,593.423 858.445,596.925 855.752,601.87C851.592,609.506 845.876,620 845.876,620C845.876,620 838.76,612.913 831.991,606.172C825.149,599.357 814.294,598.729 806.711,604.708C805.718,605.492 804.773,606.237 803.922,606.907C801.351,608.935 799.344,611.59 798.096,614.618C796.311,618.949 793.913,624.764 793.913,624.764C793.913,624.764 788.533,615.189 784.464,607.946C781.641,602.921 776.697,599.441 771.013,598.479C769.293,598.188 767.48,597.881 765.727,597.584C759.408,596.514 752.974,598.689 748.599,603.372C741.982,610.455 733.065,620 733.065,620C733.065,620 731.12,607.309 730.329,602.146C730.11,600.72 729.731,599.323 729.197,597.983C728.398,595.972 727.093,592.692 725.714,589.227C722.383,580.854 713.647,575.952 704.765,577.473C700.166,578.26 695.596,579.042 692.786,579.523C690.939,579.839 689.148,580.426 687.472,581.264C682.093,583.954 670,590 670,590C670,590 674.615,576.156 677.574,567.277C679.106,562.683 678.441,557.64 675.771,553.6C675.138,552.641 674.487,551.656 673.861,550.709C671.502,547.139 667.301,545.243 663.063,545.835C652.421,547.324 633.282,550 633.282,550C633.282,550 637.137,538.522 639.007,532.957C639.665,530.999 640,528.947 640,526.881L640,521.793C640,514.565 635.917,507.958 629.452,504.726C626.846,503.423 624.29,502.145 622.495,501.247C620.84,500.42 619.075,499.838 617.253,499.519C605.857,497.523 562.901,490 562.901,490C562.901,490 581.52,483.129 587.892,480.778C589.292,480.261 590.628,479.582 591.87,478.753C595.714,476.191 604.711,470.192 611.503,465.665C616.812,462.126 620,456.168 620,449.788L620,447.904C620,442.843 617.99,437.99 614.411,434.411C608.494,428.494 600,420 600,420C600,420 609.655,418.238 616.803,416.934C621.614,416.056 625.851,413.234 628.514,409.133C629.279,407.956 630.071,406.736 630.818,405.586C633.052,402.148 633.208,397.758 631.224,394.17C626.967,386.468 620,373.864 620,373.864C620,373.864 632.043,374.353 640.869,374.711C646.642,374.946 652.211,372.551 656.012,368.2C656.171,368.019 656.329,367.837 656.488,367.656C660.669,362.87 662.193,356.318 660.553,350.178C658.533,342.614 656.083,333.441 656.083,333.441Z" style="fill:rgb(255,86,86);"/>
        <clipPath id="_clip1">
            <path id="Sun1" serif:id="Sun" d="M656.083,333.441C656.083,333.441 668.734,336.91 675.634,338.803C678.505,339.59 681.52,339.695 684.439,339.108C686.014,338.792 687.859,338.421 689.718,338.048C696.121,336.761 701.421,332.289 703.767,326.194C705.516,321.651 707.479,316.55 708.727,313.309C709.568,311.122 710,308.798 710,306.455C710,301.821 710,294.288 710,294.288C710,294.288 721.649,305.844 727.166,311.318C729.035,313.172 731.268,314.619 733.723,315.569C734.975,316.053 736.42,316.611 737.851,317.165C742.505,318.965 747.712,318.642 752.108,316.281C754.213,315.151 756.492,313.928 758.474,312.863C761.944,311 764.752,308.109 766.513,304.587C770.257,297.101 776.559,284.5 776.559,284.5C776.559,284.5 778,290.991 779.017,295.572C779.682,298.57 781.143,301.334 783.245,303.573C784.737,305.164 786.104,306.561 787.351,307.765C791.155,311.424 796.305,313.343 801.576,313.065C805.45,312.855 809.121,312.237 812.555,311.145C813.035,310.992 813.51,310.82 813.977,310.63C820.081,308.104 824.653,304.156 827.974,299.04C827.983,299.027 827.991,299.013 828,299C828.008,298.987 840,280 840,280L840,302.096C840,307.157 842.01,312.01 845.589,315.589C847.024,317.024 848.394,318.394 849.216,319.216C850.222,320.222 851.366,321.081 852.612,321.767C858.297,324.874 864.808,324.189 869.737,322.748C870.876,322.409 871.981,321.965 873.038,321.421C877.604,319.113 895.294,310 895.294,310C895.294,310 893.372,317.26 891.844,323.032C890.656,327.522 891.146,332.292 893.224,336.447C894.055,338.109 894.961,339.922 895.832,341.665C898.462,346.925 903.371,350.678 909.136,351.838C911.763,352.366 914.47,352.911 916.525,353.324C918.822,353.786 921.185,353.821 923.494,353.428C930.064,352.308 943.6,350 943.6,350C943.6,350 936.244,360.817 932.352,366.541C930.802,368.82 929.765,371.407 929.311,374.126C929.182,374.895 929.041,375.741 928.891,376.638C927.247,386.476 933.458,395.921 943.143,398.309C944.938,398.752 946.544,399.148 947.75,399.445C949.244,399.814 950.778,400 952.318,400L965.188,400C965.188,400 958.481,411.414 955.2,416.997C954.034,418.983 953.236,421.163 952.846,423.433C952.597,424.88 952.292,426.657 951.975,428.503C950.763,435.56 953.604,442.703 959.333,446.999C960.084,447.562 960.78,448.084 961.375,448.53C962.675,449.505 964.108,450.29 965.629,450.86C972.095,453.285 990,460 990,460C990,460 977.561,466.341 968.703,470.857C963.238,473.643 959.446,478.886 958.511,484.948C958.124,487.455 957.713,490.118 957.346,492.496C956.603,497.315 957.732,502.236 960.503,506.248C964.555,512.116 970,520 970,520C970,520 963.357,521.57 957.136,523.041C950.551,524.597 945.282,529.525 943.29,535.992C942.614,538.187 941.935,540.389 941.372,542.219C940.475,545.128 940.415,548.23 941.198,551.171C942.563,556.297 944.606,563.97 944.606,563.97C944.606,563.97 935.195,562.452 928.013,561.293C922.893,560.467 917.657,561.761 913.511,564.876C911.631,566.289 909.561,567.845 907.618,569.304C902.822,572.909 900,578.559 900,584.559C900,591.612 900,600 900,600C900,600 891.788,595.894 885.888,592.944C882.073,591.037 877.729,590.462 873.549,591.313C872.004,591.628 870.33,591.968 868.702,592.3C863.185,593.423 858.445,596.925 855.752,601.87C851.592,609.506 845.876,620 845.876,620C845.876,620 838.76,612.913 831.991,606.172C825.149,599.357 814.294,598.729 806.711,604.708C805.718,605.492 804.773,606.237 803.922,606.907C801.351,608.935 799.344,611.59 798.096,614.618C796.311,618.949 793.913,624.764 793.913,624.764C793.913,624.764 788.533,615.189 784.464,607.946C781.641,602.921 776.697,599.441 771.013,598.479C769.293,598.188 767.48,597.881 765.727,597.584C759.408,596.514 752.974,598.689 748.599,603.372C741.982,610.455 733.065,620 733.065,620C733.065,620 731.12,607.309 730.329,602.146C730.11,600.72 729.731,599.323 729.197,597.983C728.398,595.972 727.093,592.692 725.714,589.227C722.383,580.854 713.647,575.952 704.765,577.473C700.166,578.26 695.596,579.042 692.786,579.523C690.939,579.839 689.148,580.426 687.472,581.264C682.093,583.954 670,590 670,590C670,590 674.615,576.156 677.574,567.277C679.106,562.683 678.441,557.64 675.771,553.6C675.138,552.641 674.487,551.656 673.861,550.709C671.502,547.139 667.301,545.243 663.063,545.835C652.421,547.324 633.282,550 633.282,550C633.282,550 637.137,538.522 639.007,532.957C639.665,530.999 640,528.947 640,526.881L640,521.793C640,514.565 635.917,507.958 629.452,504.726C626.846,503.423 624.29,502.145 622.495,501.247C620.84,500.42 619.075,499.838 617.253,499.519C605.857,497.523 562.901,490 562.901,490C562.901,490 581.52,483.129 587.892,480.778C589.292,480.261 590.628,479.582 591.87,478.753C595.714,476.191 604.711,470.192 611.503,465.665C616.812,462.126 620,456.168 620,449.788L620,447.904C620,442.843 617.99,437.99 614.411,434.411C608.494,428.494 600,420 600,420C600,420 609.655,418.238 616.803,416.934C621.614,416.056 625.851,413.234 628.514,409.133C629.279,407.956 630.071,406.736 630.818,405.586C633.052,402.148 633.208,397.758 631.224,394.17C626.967,386.468 620,373.864 620,373.864C620,373.864 632.043,374.353 640.869,374.711C646.642,374.946 652.211,372.551 656.012,368.2C656.171,368.019 656.329,367.837 656.488,367.656C660.669,362.87 662.193,356.318 660.553,350.178C658.533,342.614 656.083,333.441 656.083,333.441Z"/>
        </clipPath>
        <g clip-path="url(#_clip1)">
            <g>
                <path d="M718,485C729.975,496.41 742.848,506.894 758.346,514.674C758.754,514.878 759.168,515.069 759.589,515.247C776.778,522.497 792.689,528.627 813.795,527.016C813.936,527.005 814.077,526.997 814.219,526.992C829.944,526.419 848.998,521.677 864.775,514.108C864.923,514.037 865.069,513.963 865.214,513.885C876.591,507.738 885.255,499.58 892,490C892.501,494.03 887.261,503.912 884,507C881.211,510.402 877.822,514.197 870.488,520.577C870.163,520.861 869.82,521.124 869.462,521.366C830.489,547.638 791.052,544.26 758.003,522.002C758.002,522.001 758.001,522.001 758,522C751.173,517.436 744.867,512.453 734.476,504.269C733.826,503.757 733.196,503.219 732.589,502.656C729.557,499.849 720,491 720,491L711,491L718,485Z" style="stroke:black;stroke-width:1px;"/>
                <path d="M802.741,408.175C802.658,407.774 802.309,407.483 801.9,407.475C801.491,407.467 801.13,407.743 801.031,408.14C799.176,415.658 798.441,422.648 799.997,432.483C799.999,432.494 800.001,432.506 800.004,432.518C801.403,439.513 801.71,444.811 806.495,458.985C806.498,458.995 806.502,459.006 806.505,459.017C808.066,464.295 811.331,470.698 814.96,474.953C814.989,474.987 815.021,475.019 815.055,475.048C817.625,477.262 820.121,477.721 823.226,477.553C823.673,477.53 824.03,477.172 824.053,476.726C824.175,473.9 823.542,471.123 821.02,467.528C821.008,467.511 820.996,467.493 820.985,467.475C817.943,462.386 813.938,452.578 811.51,446.026C811.503,446.008 811.497,445.991 811.492,445.973C811.285,445.285 807.185,431.616 807.006,431.02C807.002,431.007 806.999,430.994 806.995,430.981C806.044,427.173 804.204,415.817 802.741,408.175Z" style="stroke:black;stroke-width:1px;"/>
                <path d="M681,423C681.936,417.354 691.683,407.157 696.43,402.473C698.66,400.284 701.207,398.443 703.985,397.013C711.6,393.174 718.813,391.587 726.187,390.717C730.939,390.134 735.76,390.588 740.319,392.049C741.962,392.557 743.547,393.075 745.152,393.669C753.408,396.731 759.692,403.569 762.049,412.052C762.23,412.63 762.389,413.2 762.541,413.749C763.123,415.842 762.604,418.087 761.163,419.712C759.721,421.338 757.554,422.122 755.406,421.794C755.047,421.721 754.679,421.651 754.305,421.572C752.891,421.284 751.665,420.41 750.933,419.165C749.715,417.116 747.685,413.664 745.866,410.571C742.617,405.048 737.034,401.3 730.692,400.385C729.892,400.274 729.005,400.15 728,400C724.546,399.485 714.001,399.925 708,403C704.119,404.988 701.221,407.167 694.798,412.355C694.279,412.774 693.781,413.22 693.309,413.691C690.543,416.432 680.463,426.241 681,423Z" style="stroke:black;stroke-width:1px;"/>
                <g transform="matrix(1,0,0,1,144.021,7.94019)">
                    <path d="M681,423C681.936,417.354 691.683,407.157 696.43,402.473C698.66,400.284 701.207,398.443 703.985,397.013C711.6,393.174 718.813,391.587 726.187,390.717C730.939,390.134 735.76,390.588 740.319,392.049C741.962,392.557 743.547,393.075 745.152,393.669C753.408,396.731 759.692,403.569 762.049,412.052C762.23,412.63 762.389,413.2 762.541,413.749C763.123,415.842 762.604,418.087 761.163,419.712C759.721,421.338 757.554,422.122 755.406,421.794C755.047,421.721 754.679,421.651 754.305,421.572C752.891,421.284 751.665,420.41 750.933,419.165C749.715,417.116 747.685,413.664 745.866,410.571C742.617,405.048 737.034,401.3 730.692,400.385C729.892,400.274 729.005,400.15 728,400C724.546,399.485 714.001,399.925 708,403C704.119,404.988 701.221,407.167 694.798,412.355C694.279,412.774 693.781,413.22 693.309,413.691C690.543,416.432 680.463,426.241 681,423Z" style="stroke:black;stroke-width:1px;"/>
                </g>
            </g>
        </g>
        <path id="Sun2" serif:id="Sun" d="M656.083,333.441C656.083,333.441 668.734,336.91 675.634,338.803C678.505,339.59 681.52,339.695 684.439,339.108C686.014,338.792 687.859,338.421 689.718,338.048C696.121,336.761 701.421,332.289 703.767,326.194C705.516,321.651 707.479,316.55 708.727,313.309C709.568,311.122 710,308.798 710,306.455C710,301.821 710,294.288 710,294.288C710,294.288 721.649,305.844 727.166,311.318C729.035,313.172 731.268,314.619 733.723,315.569C734.975,316.053 736.42,316.611 737.851,317.165C742.505,318.965 747.712,318.642 752.108,316.281C754.213,315.151 756.492,313.928 758.474,312.863C761.944,311 764.752,308.109 766.513,304.587C770.257,297.101 776.559,284.5 776.559,284.5C776.559,284.5 778,290.991 779.017,295.572C779.682,298.57 781.143,301.334 783.245,303.573C784.737,305.164 786.104,306.561 787.351,307.765C791.155,311.424 796.305,313.343 801.576,313.065C805.45,312.855 809.121,312.237 812.555,311.145C813.035,310.992 813.51,310.82 813.977,310.63C820.081,308.104 824.653,304.156 827.974,299.04C827.983,299.027 827.991,299.013 828,299C828.008,298.987 840,280 840,280L840,302.096C840,307.157 842.01,312.01 845.589,315.589C847.024,317.024 848.394,318.394 849.216,319.216C850.222,320.222 851.366,321.081 852.612,321.767C858.297,324.874 864.808,324.189 869.737,322.748C870.876,322.409 871.981,321.965 873.038,321.421C877.604,319.113 895.294,310 895.294,310C895.294,310 893.372,317.26 891.844,323.032C890.656,327.522 891.146,332.292 893.224,336.447C894.055,338.109 894.961,339.922 895.832,341.665C898.462,346.925 903.371,350.678 909.136,351.838C911.763,352.366 914.47,352.911 916.525,353.324C918.822,353.786 921.185,353.821 923.494,353.428C930.064,352.308 943.6,350 943.6,350C943.6,350 936.244,360.817 932.352,366.541C930.802,368.82 929.765,371.407 929.311,374.126C929.182,374.895 929.041,375.741 928.891,376.638C927.247,386.476 933.458,395.921 943.143,398.309C944.938,398.752 946.544,399.148 947.75,399.445C949.244,399.814 950.778,400 952.318,400L965.188,400C965.188,400 958.481,411.414 955.2,416.997C954.034,418.983 953.236,421.163 952.846,423.433C952.597,424.88 952.292,426.657 951.975,428.503C950.763,435.56 953.604,442.703 959.333,446.999C960.084,447.562 960.78,448.084 961.375,448.53C962.675,449.505 964.108,450.29 965.629,450.86C972.095,453.285 990,460 990,460C990,460 977.561,466.341 968.703,470.857C963.238,473.643 959.446,478.886 958.511,484.948C958.124,487.455 957.713,490.118 957.346,492.496C956.603,497.315 957.732,502.236 960.503,506.248C964.555,512.116 970,520 970,520C970,520 963.357,521.57 957.136,523.041C950.551,524.597 945.282,529.525 943.29,535.992C942.614,538.187 941.935,540.389 941.372,542.219C940.475,545.128 940.415,548.23 941.198,551.171C942.563,556.297 944.606,563.97 944.606,563.97C944.606,563.97 935.195,562.452 928.013,561.293C922.893,560.467 917.657,561.761 913.511,564.876C911.631,566.289 909.561,567.845 907.618,569.304C902.822,572.909 900,578.559 900,584.559C900,591.612 900,600 900,600C900,600 891.788,595.894 885.888,592.944C882.073,591.037 877.729,590.462 873.549,591.313C872.004,591.628 870.33,591.968 868.702,592.3C863.185,593.423 858.445,596.925 855.752,601.87C851.592,609.506 845.876,620 845.876,620C845.876,620 838.76,612.913 831.991,606.172C825.149,599.357 814.294,598.729 806.711,604.708C805.718,605.492 804.773,606.237 803.922,606.907C801.351,608.935 799.344,611.59 798.096,614.618C796.311,618.949 793.913,624.764 793.913,624.764C793.913,624.764 788.533,615.189 784.464,607.946C781.641,602.921 776.697,599.441 771.013,598.479C769.293,598.188 767.48,597.881 765.727,597.584C759.408,596.514 752.974,598.689 748.599,603.372C741.982,610.455 733.065,620 733.065,620C733.065,620 731.12,607.309 730.329,602.146C730.11,600.72 729.731,599.323 729.197,597.983C728.398,595.972 727.093,592.692 725.714,589.227C722.383,580.854 713.647,575.952 704.765,577.473C700.166,578.26 695.596,579.042 692.786,579.523C690.939,579.839 689.148,580.426 687.472,581.264C682.093,583.954 670,590 670,590C670,590 674.615,576.156 677.574,567.277C679.106,562.683 678.441,557.64 675.771,553.6C675.138,552.641 674.487,551.656 673.861,550.709C671.502,547.139 667.301,545.243 663.063,545.835C652.421,547.324 633.282,550 633.282,550C633.282,550 637.137,538.522 639.007,532.957C639.665,530.999 640,528.947 640,526.881L640,521.793C640,514.565 635.917,507.958 629.452,504.726C626.846,503.423 624.29,502.145 622.495,501.247C620.84,500.42 619.075,499.838 617.253,499.519C605.857,497.523 562.901,490 562.901,490C562.901,490 581.52,483.129 587.892,480.778C589.292,480.261 590.628,479.582 591.87,478.753C595.714,476.191 604.711,470.192 611.503,465.665C616.812,462.126 620,456.168 620,449.788L620,447.904C620,442.843 617.99,437.99 614.411,434.411C608.494,428.494 600,420 600,420C600,420 609.655,418.238 616.803,416.934C621.614,416.056 625.851,413.234 628.514,409.133C629.279,407.956 630.071,406.736 630.818,405.586C633.052,402.148 633.208,397.758 631.224,394.17C626.967,386.468 620,373.864 620,373.864C620,373.864 632.043,374.353 640.869,374.711C646.642,374.946 652.211,372.551 656.012,368.2C656.171,368.019 656.329,367.837 656.488,367.656C660.669,362.87 662.193,356.318 660.553,350.178C658.533,342.614 656.083,333.441 656.083,333.441Z" style="fill:none;stroke:black;stroke-width:1px;"/>
        <g transform="matrix(0.911111,0,0,0.933333,-188,-197.333)">
            <g transform="matrix(0.843571,0.537018,-0.537018,0.843571,782.112,-359.28)">
                <g transform="matrix(154.286,0,0,154.286,1007.76,1162.85)">
                    <path d="M0.022,0.224C0.008,0.224 -0.007,0.223 -0.021,0.222C-0.035,0.22 -0.048,0.217 -0.061,0.214L-0.061,0.07C-0.053,0.073 -0.044,0.076 -0.035,0.077C-0.026,0.079 -0.016,0.08 -0.006,0.08C0.011,0.08 0.025,0.076 0.035,0.069C0.045,0.061 0.052,0.048 0.056,0.03C0.06,0.011 0.062,-0.014 0.062,-0.047L0.062,-0.714L0.231,-0.714L0.231,-0.055C0.231,0.017 0.223,0.073 0.206,0.114C0.19,0.154 0.166,0.183 0.135,0.199C0.104,0.216 0.066,0.224 0.022,0.224Z" style="fill-rule:nonzero;"/>
                </g>
            </g>
            <g transform="matrix(0.914833,0.403833,-0.403833,0.914833,568.496,-321.082)">
                <g transform="matrix(154.286,0,0,154.286,1045.48,1187.26)">
                    <path d="M0.266,-0.563C0.321,-0.563 0.365,-0.547 0.397,-0.514C0.429,-0.481 0.445,-0.431 0.445,-0.363L0.445,-0L0.328,-0L0.301,-0.073L0.298,-0.073C0.286,-0.055 0.274,-0.039 0.26,-0.027C0.247,-0.014 0.232,-0.005 0.216,0.001C0.199,0.007 0.179,0.01 0.156,0.01C0.124,0.01 0.099,0.001 0.08,-0.016C0.06,-0.033 0.046,-0.056 0.038,-0.083C0.029,-0.11 0.025,-0.139 0.025,-0.169C0.025,-0.228 0.041,-0.272 0.073,-0.302C0.104,-0.331 0.15,-0.347 0.211,-0.349L0.283,-0.352L0.283,-0.366C0.283,-0.389 0.279,-0.406 0.27,-0.417C0.262,-0.428 0.248,-0.434 0.23,-0.434C0.214,-0.434 0.196,-0.431 0.177,-0.424C0.158,-0.417 0.136,-0.407 0.111,-0.393L0.069,-0.513C0.096,-0.529 0.126,-0.541 0.159,-0.55C0.192,-0.559 0.228,-0.563 0.266,-0.563ZM0.283,-0.247L0.253,-0.245C0.231,-0.244 0.215,-0.238 0.204,-0.226C0.193,-0.215 0.187,-0.198 0.187,-0.176C0.187,-0.157 0.19,-0.143 0.197,-0.133C0.203,-0.124 0.213,-0.119 0.226,-0.119C0.242,-0.119 0.256,-0.126 0.267,-0.141C0.278,-0.155 0.283,-0.174 0.283,-0.198L0.283,-0.247Z" style="fill-rule:nonzero;"/>
                </g>
            </g>
            <g transform="matrix(0.960819,0.277178,-0.277178,0.960819,381.009,-261.617)">
                <g transform="matrix(154.286,0,0,154.286,1115.87,1216.86)">
                    <path d="M0.225,-0.146L0.23,-0.135C0.225,-0.098 0.219,-0.064 0.213,-0.031C0.206,0.001 0.199,0.032 0.191,0.06C0.184,0.088 0.175,0.115 0.165,0.139L0.031,0.139C0.036,0.113 0.041,0.083 0.046,0.048C0.051,0.013 0.055,-0.022 0.059,-0.056C0.063,-0.091 0.066,-0.121 0.067,-0.146L0.225,-0.146Z" style="fill-rule:nonzero;"/>
                </g>
            </g>
            <g transform="matrix(0.996927,0.0783363,-0.0783363,0.996927,100.405,-88.8479)">
                <g transform="matrix(154.286,0,0,154.286,1182.65,1235.33)">
                    <path d="M0.212,-0.76L0.212,-0.588C0.212,-0.577 0.212,-0.563 0.211,-0.546C0.21,-0.528 0.209,-0.507 0.207,-0.482L0.212,-0.482C0.227,-0.511 0.245,-0.531 0.265,-0.544C0.285,-0.557 0.307,-0.563 0.332,-0.563C0.381,-0.563 0.42,-0.538 0.449,-0.487C0.478,-0.436 0.492,-0.366 0.492,-0.278C0.492,-0.219 0.486,-0.168 0.473,-0.125C0.46,-0.082 0.441,-0.049 0.417,-0.025C0.393,-0.002 0.363,0.01 0.328,0.01C0.303,0.01 0.283,0.006 0.266,-0.003C0.25,-0.011 0.231,-0.028 0.212,-0.054L0.204,-0.054L0.18,-0L0.05,-0L0.05,-0.76L0.212,-0.76ZM0.273,-0.424C0.259,-0.424 0.247,-0.419 0.238,-0.41C0.229,-0.401 0.222,-0.388 0.218,-0.369C0.214,-0.35 0.212,-0.326 0.212,-0.297L0.212,-0.265C0.212,-0.216 0.217,-0.18 0.227,-0.158C0.236,-0.136 0.252,-0.125 0.274,-0.125C0.292,-0.125 0.305,-0.138 0.314,-0.163C0.323,-0.188 0.328,-0.227 0.328,-0.28C0.328,-0.328 0.324,-0.364 0.314,-0.388C0.305,-0.412 0.292,-0.424 0.273,-0.424Z" style="fill-rule:nonzero;"/>
                </g>
            </g>
            <g transform="matrix(0.998653,-0.0518817,0.0518817,0.998653,-62.6547,67.2162)">
                <g transform="matrix(154.286,0,0,154.286,1263.37,1240.44)">
                    <path d="M0.213,-0.553L0.213,-0L0.051,-0L0.051,-0.553L0.213,-0.553ZM0.132,-0.776C0.162,-0.776 0.184,-0.769 0.197,-0.754C0.211,-0.74 0.218,-0.719 0.218,-0.691C0.218,-0.663 0.211,-0.642 0.196,-0.628C0.182,-0.614 0.16,-0.607 0.132,-0.607C0.104,-0.607 0.082,-0.614 0.068,-0.628C0.053,-0.642 0.046,-0.663 0.046,-0.691C0.046,-0.72 0.053,-0.741 0.066,-0.755C0.08,-0.769 0.102,-0.776 0.132,-0.776Z" style="fill-rule:nonzero;"/>
                </g>
            </g>
            <g transform="matrix(0.987837,-0.155496,0.155496,0.987837,-176.737,217.878)">
                <g transform="matrix(154.286,0,0,154.286,1304.29,1238.63)">
                    <path d="M0.265,-0.13C0.275,-0.13 0.286,-0.132 0.298,-0.135C0.31,-0.138 0.323,-0.143 0.336,-0.149L0.336,-0.021C0.318,-0.011 0.299,-0.003 0.28,0.002C0.26,0.007 0.239,0.01 0.216,0.01C0.18,0.01 0.15,0.003 0.128,-0.011C0.105,-0.025 0.089,-0.046 0.079,-0.074C0.068,-0.103 0.063,-0.139 0.063,-0.182L0.063,-0.42L0.007,-0.42L0.007,-0.506L0.077,-0.548L0.115,-0.664L0.225,-0.664L0.225,-0.553L0.329,-0.553L0.329,-0.42L0.225,-0.42L0.225,-0.184C0.225,-0.166 0.228,-0.153 0.235,-0.144C0.241,-0.134 0.251,-0.13 0.265,-0.13Z" style="fill-rule:nonzero;"/>
                </g>
            </g>
            <g transform="matrix(0.961462,-0.274937,0.274937,0.961462,-285.823,420.87)">
                <g transform="matrix(154.286,0,0,154.286,1358.38,1230)">
                    <path d="M0.265,-0.13C0.275,-0.13 0.286,-0.132 0.298,-0.135C0.31,-0.138 0.323,-0.143 0.336,-0.149L0.336,-0.021C0.318,-0.011 0.299,-0.003 0.28,0.002C0.26,0.007 0.239,0.01 0.216,0.01C0.18,0.01 0.15,0.003 0.128,-0.011C0.105,-0.025 0.089,-0.046 0.079,-0.074C0.068,-0.103 0.063,-0.139 0.063,-0.182L0.063,-0.42L0.007,-0.42L0.007,-0.506L0.077,-0.548L0.115,-0.664L0.225,-0.664L0.225,-0.553L0.329,-0.553L0.329,-0.42L0.225,-0.42L0.225,-0.184C0.225,-0.166 0.228,-0.153 0.235,-0.144C0.241,-0.134 0.251,-0.13 0.265,-0.13Z" style="fill-rule:nonzero;"/>
                </g>
            </g>
            <g transform="matrix(0.910778,-0.412897,0.412897,0.910778,-376.009,691.137)">
                <g transform="matrix(154.286,0,0,154.286,1411.19,1215.6)">
                    <path d="M0.246,-0.562C0.29,-0.562 0.328,-0.552 0.359,-0.533C0.39,-0.513 0.414,-0.485 0.43,-0.447C0.447,-0.41 0.455,-0.364 0.455,-0.31L0.455,-0.225L0.191,-0.225C0.191,-0.188 0.199,-0.161 0.214,-0.144C0.23,-0.128 0.253,-0.119 0.285,-0.119C0.311,-0.119 0.334,-0.122 0.356,-0.129C0.378,-0.135 0.401,-0.146 0.427,-0.162L0.427,-0.03C0.403,-0.016 0.377,-0.006 0.35,0C0.323,0.007 0.293,0.01 0.261,0.01C0.208,0.01 0.164,-0.001 0.131,-0.023C0.097,-0.044 0.072,-0.076 0.056,-0.119C0.04,-0.161 0.032,-0.213 0.032,-0.274C0.032,-0.336 0.04,-0.388 0.056,-0.431C0.073,-0.474 0.096,-0.506 0.128,-0.529C0.16,-0.551 0.199,-0.562 0.246,-0.562ZM0.25,-0.437C0.233,-0.437 0.219,-0.43 0.208,-0.415C0.197,-0.4 0.191,-0.375 0.191,-0.339L0.305,-0.339C0.305,-0.362 0.303,-0.381 0.298,-0.396C0.294,-0.41 0.287,-0.421 0.279,-0.427C0.271,-0.434 0.261,-0.437 0.25,-0.437Z" style="fill-rule:nonzero;"/>
                </g>
            </g>
            <g transform="matrix(0.85057,-0.525863,0.525863,0.85057,-401.724,954.355)">
                <g transform="matrix(154.286,0,0,154.286,1478.38,1184.03)">
                    <path d="M0.206,-0.252L0.066,-0.252L0.042,-0.714L0.229,-0.714L0.206,-0.252ZM0.043,-0.081C0.043,-0.111 0.051,-0.134 0.067,-0.15C0.082,-0.167 0.106,-0.175 0.136,-0.175C0.165,-0.175 0.187,-0.167 0.203,-0.15C0.218,-0.134 0.226,-0.111 0.226,-0.081C0.226,-0.051 0.218,-0.028 0.202,-0.012C0.186,0.004 0.164,0.012 0.136,0.012C0.108,0.012 0.085,0.004 0.068,-0.012C0.051,-0.028 0.043,-0.051 0.043,-0.081Z" style="fill-rule:nonzero;"/>
                </g>
            </g>
        </g>
        <g transform="matrix(0.933333,0,0,0.933333,-136.397,-117.333)">
            <g transform="matrix(0.688985,-0.724776,0.724776,0.688985,-71.7334,790.997)">
                <g transform="matrix(154.286,0,0,154.286,885.785,479.081)">
                    <path d="M0.229,-0L0.059,-0L0.059,-0.714L0.401,-0.714L0.401,-0.57L0.229,-0.57L0.229,-0.417L0.388,-0.417L0.388,-0.273L0.229,-0.273L0.229,-0Z" style="fill-rule:nonzero;"/>
                </g>
            </g>
            <g transform="matrix(0.813122,-0.582094,0.582094,0.813122,-75.9885,622.798)">
                <g transform="matrix(154.286,0,0,154.286,931.959,429.744)">
                    <path d="M0.246,-0.562C0.29,-0.562 0.328,-0.552 0.359,-0.533C0.39,-0.513 0.414,-0.485 0.43,-0.447C0.447,-0.41 0.455,-0.364 0.455,-0.31L0.455,-0.225L0.191,-0.225C0.191,-0.188 0.199,-0.161 0.214,-0.144C0.23,-0.128 0.253,-0.119 0.285,-0.119C0.311,-0.119 0.334,-0.122 0.356,-0.129C0.378,-0.135 0.401,-0.146 0.427,-0.162L0.427,-0.03C0.403,-0.016 0.377,-0.006 0.35,0C0.323,0.007 0.293,0.01 0.261,0.01C0.208,0.01 0.164,-0.001 0.131,-0.023C0.097,-0.044 0.072,-0.076 0.056,-0.119C0.04,-0.161 0.032,-0.213 0.032,-0.274C0.032,-0.336 0.04,-0.388 0.056,-0.431C0.073,-0.474 0.096,-0.506 0.128,-0.529C0.16,-0.551 0.199,-0.562 0.246,-0.562ZM0.25,-0.437C0.233,-0.437 0.219,-0.43 0.208,-0.415C0.197,-0.4 0.191,-0.375 0.191,-0.339L0.305,-0.339C0.305,-0.362 0.303,-0.381 0.298,-0.396C0.294,-0.41 0.287,-0.421 0.279,-0.427C0.271,-0.434 0.261,-0.437 0.25,-0.437Z" style="fill-rule:nonzero;"/>
                </g>
            </g>
            <g transform="matrix(0.90792,-0.419143,0.419143,0.90792,-70.7518,451.651)">
                <g transform="matrix(154.286,0,0,154.286,992.572,386.855)">
                    <path d="M0.322,-0.563C0.328,-0.563 0.335,-0.563 0.342,-0.562C0.349,-0.561 0.357,-0.56 0.367,-0.557L0.354,-0.383C0.347,-0.385 0.34,-0.387 0.332,-0.388C0.324,-0.389 0.315,-0.389 0.304,-0.389C0.288,-0.389 0.274,-0.387 0.263,-0.382C0.251,-0.377 0.242,-0.37 0.235,-0.361C0.227,-0.351 0.222,-0.34 0.218,-0.326C0.215,-0.312 0.213,-0.296 0.213,-0.278L0.213,-0L0.051,-0L0.051,-0.553L0.175,-0.553L0.198,-0.465L0.206,-0.465C0.213,-0.48 0.221,-0.495 0.232,-0.51C0.243,-0.525 0.257,-0.538 0.272,-0.548C0.287,-0.558 0.304,-0.563 0.322,-0.563Z" style="fill-rule:nonzero;"/>
                </g>
            </g>
            <g transform="matrix(0.969364,-0.24563,0.24563,0.969364,-56.6991,267.737)">
                <g transform="matrix(154.286,0,0,154.286,1044.95,361.164)">
                    <path d="M0.328,-0.563C0.376,-0.563 0.413,-0.545 0.44,-0.51C0.467,-0.474 0.48,-0.424 0.48,-0.36L0.48,-0L0.318,-0L0.318,-0.308C0.318,-0.345 0.315,-0.372 0.309,-0.391C0.303,-0.41 0.29,-0.419 0.27,-0.419C0.247,-0.419 0.232,-0.407 0.224,-0.383C0.216,-0.359 0.212,-0.315 0.212,-0.253L0.212,-0L0.05,-0L0.05,-0.553L0.177,-0.553L0.195,-0.485L0.204,-0.485C0.213,-0.502 0.223,-0.517 0.234,-0.529C0.246,-0.54 0.26,-0.549 0.275,-0.554C0.291,-0.56 0.309,-0.563 0.328,-0.563Z" style="fill-rule:nonzero;"/>
                </g>
            </g>
            <g transform="matrix(0.998139,-0.0609717,0.0609717,0.998139,-18.7813,69.1989)">
                <g transform="matrix(154.286,0,0,154.286,1124.49,342.346)">
                    <path d="M0.32,-0.42L0.23,-0.42L0.23,-0L0.068,-0L0.068,-0.42L0.007,-0.42L0.007,-0.506L0.068,-0.551L0.068,-0.56C0.068,-0.609 0.073,-0.649 0.085,-0.679C0.096,-0.709 0.113,-0.731 0.136,-0.744C0.159,-0.758 0.188,-0.765 0.223,-0.765C0.245,-0.765 0.265,-0.763 0.283,-0.759C0.3,-0.755 0.321,-0.748 0.346,-0.739L0.314,-0.62C0.305,-0.623 0.296,-0.625 0.288,-0.627C0.279,-0.629 0.271,-0.63 0.262,-0.63C0.251,-0.63 0.243,-0.625 0.238,-0.616C0.233,-0.608 0.23,-0.593 0.23,-0.573L0.23,-0.553L0.32,-0.553L0.32,-0.42Z" style="fill-rule:nonzero;"/>
                </g>
            </g>
            <g transform="matrix(0.993691,0.112156,-0.112156,0.993691,45.2933,-129.645)">
                <g transform="matrix(154.286,0,0,154.286,1174.94,337.745)">
                    <path d="M0.479,-0.553L0.479,-0L0.353,-0L0.334,-0.068L0.326,-0.068C0.317,-0.051 0.307,-0.036 0.295,-0.025C0.284,-0.013 0.27,-0.004 0.255,0.001C0.24,0.007 0.222,0.01 0.202,0.01C0.17,0.01 0.142,0.002 0.119,-0.014C0.096,-0.03 0.079,-0.053 0.067,-0.083C0.055,-0.113 0.049,-0.15 0.049,-0.193L0.049,-0.553L0.211,-0.553L0.211,-0.246C0.211,-0.209 0.214,-0.181 0.22,-0.162C0.227,-0.143 0.238,-0.134 0.254,-0.134C0.273,-0.134 0.288,-0.14 0.296,-0.152C0.305,-0.164 0.311,-0.181 0.313,-0.203C0.316,-0.224 0.317,-0.25 0.317,-0.28L0.317,-0.553L0.479,-0.553Z" style="fill-rule:nonzero;"/>
                </g>
            </g>
            <g transform="matrix(0.952471,0.304628,-0.304628,0.952471,165.672,-366.054)">
                <g transform="matrix(154.286,0,0,154.286,1255.92,347.897)">
                    <path d="M0.372,-0.17C0.372,-0.13 0.365,-0.097 0.35,-0.07C0.335,-0.044 0.313,-0.024 0.285,-0.01C0.257,0.003 0.223,0.01 0.183,0.01C0.156,0.01 0.13,0.007 0.104,0.003C0.077,-0.002 0.052,-0.01 0.026,-0.021L0.026,-0.174C0.046,-0.162 0.068,-0.151 0.093,-0.142C0.117,-0.133 0.141,-0.129 0.166,-0.129C0.181,-0.129 0.192,-0.131 0.2,-0.136C0.207,-0.142 0.211,-0.15 0.211,-0.161C0.211,-0.167 0.209,-0.173 0.206,-0.179C0.203,-0.185 0.196,-0.192 0.184,-0.2C0.172,-0.208 0.154,-0.218 0.128,-0.231C0.105,-0.242 0.087,-0.256 0.071,-0.273C0.056,-0.289 0.044,-0.308 0.037,-0.329C0.029,-0.35 0.025,-0.374 0.025,-0.4C0.025,-0.451 0.041,-0.491 0.072,-0.52C0.103,-0.549 0.147,-0.563 0.205,-0.563C0.234,-0.563 0.261,-0.559 0.286,-0.551C0.312,-0.543 0.337,-0.531 0.364,-0.516L0.324,-0.393C0.308,-0.404 0.29,-0.414 0.271,-0.422C0.253,-0.43 0.234,-0.434 0.215,-0.434C0.203,-0.434 0.195,-0.432 0.189,-0.428C0.184,-0.424 0.181,-0.417 0.181,-0.408C0.181,-0.402 0.183,-0.397 0.186,-0.392C0.189,-0.387 0.196,-0.381 0.207,-0.374C0.218,-0.366 0.235,-0.356 0.259,-0.342C0.281,-0.329 0.301,-0.315 0.318,-0.299C0.335,-0.283 0.348,-0.265 0.358,-0.244C0.367,-0.223 0.372,-0.198 0.372,-0.17Z" style="fill-rule:nonzero;"/>
                </g>
            </g>
            <g transform="matrix(0.900104,0.435675,-0.435675,0.900104,291.312,-535.867)">
                <g transform="matrix(154.286,0,0,154.286,1314.19,367.313)">
                    <path d="M0.213,-0.553L0.213,-0L0.051,-0L0.051,-0.553L0.213,-0.553ZM0.132,-0.776C0.162,-0.776 0.184,-0.769 0.197,-0.754C0.211,-0.74 0.218,-0.719 0.218,-0.691C0.218,-0.663 0.211,-0.642 0.196,-0.628C0.182,-0.614 0.16,-0.607 0.132,-0.607C0.104,-0.607 0.082,-0.614 0.068,-0.628C0.053,-0.642 0.046,-0.663 0.046,-0.691C0.046,-0.72 0.053,-0.741 0.066,-0.755C0.08,-0.769 0.102,-0.776 0.132,-0.776Z" style="fill-rule:nonzero;"/>
                </g>
            </g>
            <g transform="matrix(0.816162,0.577823,-0.577823,0.816162,470.279,-710.564)">
                <g transform="matrix(154.286,0,0,154.286,1351.83,383.788)">
                    <path d="M0.483,-0.278C0.483,-0.242 0.479,-0.208 0.471,-0.174C0.464,-0.14 0.451,-0.109 0.434,-0.081C0.416,-0.053 0.393,-0.031 0.364,-0.015C0.335,0.002 0.299,0.01 0.257,0.01C0.218,0.01 0.184,0.002 0.156,-0.014C0.127,-0.031 0.104,-0.052 0.086,-0.079C0.068,-0.107 0.054,-0.137 0.045,-0.172C0.037,-0.206 0.032,-0.241 0.032,-0.278C0.032,-0.331 0.04,-0.379 0.055,-0.422C0.07,-0.465 0.095,-0.5 0.128,-0.525C0.162,-0.55 0.205,-0.563 0.259,-0.563C0.304,-0.563 0.343,-0.552 0.376,-0.53C0.41,-0.507 0.436,-0.475 0.455,-0.433C0.474,-0.39 0.483,-0.339 0.483,-0.278ZM0.196,-0.276C0.196,-0.243 0.198,-0.215 0.202,-0.193C0.207,-0.17 0.214,-0.153 0.223,-0.142C0.232,-0.131 0.243,-0.125 0.258,-0.125C0.273,-0.125 0.285,-0.131 0.294,-0.142C0.303,-0.153 0.309,-0.17 0.313,-0.193C0.317,-0.216 0.319,-0.244 0.319,-0.278C0.319,-0.312 0.317,-0.34 0.313,-0.362C0.309,-0.384 0.303,-0.401 0.294,-0.412C0.285,-0.423 0.273,-0.428 0.258,-0.428C0.236,-0.428 0.221,-0.416 0.211,-0.391C0.201,-0.366 0.196,-0.328 0.196,-0.276Z" style="fill-rule:nonzero;"/>
                </g>
            </g>
            <g transform="matrix(0.670416,0.741986,-0.741986,0.670416,785.975,-909.746)">
                <g transform="matrix(154.286,0,0,154.286,1417.03,429.851)">
                    <path d="M0.328,-0.563C0.376,-0.563 0.413,-0.545 0.44,-0.51C0.467,-0.474 0.48,-0.424 0.48,-0.36L0.48,-0L0.318,-0L0.318,-0.308C0.318,-0.345 0.315,-0.372 0.309,-0.391C0.303,-0.41 0.29,-0.419 0.27,-0.419C0.247,-0.419 0.232,-0.407 0.224,-0.383C0.216,-0.359 0.212,-0.315 0.212,-0.253L0.212,-0L0.05,-0L0.05,-0.553L0.177,-0.553L0.195,-0.485L0.204,-0.485C0.213,-0.502 0.223,-0.517 0.234,-0.529C0.246,-0.54 0.26,-0.549 0.275,-0.554C0.291,-0.56 0.309,-0.563 0.328,-0.563Z" style="fill-rule:nonzero;"/>
                </g>
            </g>
            <g transform="matrix(0.515571,0.856847,-0.856847,0.515571,1133.44,-1022.5)">
                <g transform="matrix(154.286,0,0,154.286,1471.01,491.148)">
                    <path d="M0.107,-0.252L0.107,-0.294C0.107,-0.316 0.109,-0.335 0.114,-0.351C0.118,-0.367 0.126,-0.383 0.135,-0.397C0.145,-0.411 0.159,-0.425 0.175,-0.44C0.188,-0.452 0.199,-0.463 0.207,-0.472C0.215,-0.481 0.221,-0.49 0.225,-0.499C0.228,-0.509 0.23,-0.52 0.23,-0.532C0.23,-0.548 0.225,-0.559 0.216,-0.568C0.207,-0.576 0.192,-0.58 0.173,-0.58C0.156,-0.58 0.137,-0.576 0.117,-0.567C0.097,-0.558 0.075,-0.545 0.052,-0.528L0,-0.655C0.032,-0.678 0.063,-0.695 0.094,-0.707C0.126,-0.718 0.157,-0.724 0.189,-0.724C0.254,-0.724 0.304,-0.708 0.337,-0.676C0.371,-0.644 0.388,-0.6 0.388,-0.546C0.388,-0.517 0.385,-0.492 0.377,-0.471C0.37,-0.45 0.359,-0.431 0.345,-0.414C0.332,-0.397 0.315,-0.379 0.295,-0.362C0.278,-0.347 0.266,-0.335 0.259,-0.326C0.252,-0.317 0.247,-0.309 0.246,-0.302C0.244,-0.295 0.243,-0.287 0.243,-0.277L0.243,-0.252L0.107,-0.252ZM0.083,-0.081C0.083,-0.111 0.091,-0.134 0.107,-0.15C0.123,-0.167 0.146,-0.175 0.176,-0.175C0.205,-0.175 0.227,-0.167 0.243,-0.15C0.258,-0.134 0.266,-0.111 0.266,-0.081C0.266,-0.051 0.258,-0.028 0.242,-0.012C0.227,0.004 0.204,0.012 0.176,0.012C0.147,0.012 0.125,0.004 0.108,-0.012C0.091,-0.028 0.083,-0.051 0.083,-0.081Z" style="fill-rule:nonzero;"/>
                </g>
            </g>
        </g>
        <path d="M1228,664L1214.89,664" style="fill:none;stroke:black;stroke-width:1px;"/>
        <path d="M1202.94,684L1213.1,668L1213,684L1202.94,684Z" style="fill:white;stroke:black;stroke-width:1px;"/>
        <ellipse cx="1221" cy="779" rx="22" ry="2" style="fill:white;stroke:black;stroke-width:1px;"/>
        <path d="M1213,777L1228,777L1228,664L1235,664L1238.8,624L1213.1,667L1213,777Z" style="fill:white;stroke:black;stroke-width:1px;"/>
        <path d="M1228,664L1214.89,664" style="fill:none;stroke:black;stroke-width:1px;"/>
        <g transform="matrix(0.790194,1.80411e-16,-0.53569,0.883034,736.321,0.323105)">
            <g transform="matrix(0.875187,0,0,1.09398,108.06,-55.7456)">
                <rect x="865.773" y="593.144" width="274.227" height="274.227" style="fill:white;stroke:black;stroke-width:1.46px;"/>
            </g>
            <g transform="matrix(0.846154,0,0,1.07692,137.971,-43.0094)">
                <rect x="871.948" y="600" width="260" height="260" style="fill:white;stroke:black;stroke-width:1.48px;"/>
            </g>
            <g>
                <g transform="matrix(0.211538,0,0,0.215385,691.322,473.914)">
                    <rect x="871.948" y="600" width="260" height="260" style="fill:white;stroke:black;stroke-width:7.17px;"/>
                </g>
                <g transform="matrix(0.211538,0,0,0.215385,746.322,473.914)">
                    <rect x="871.948" y="600" width="260" height="260" style="fill:white;stroke:black;stroke-width:7.17px;"/>
                </g>
                <g transform="matrix(0.211538,0,0,0.215385,801.322,473.914)">
                    <rect x="871.948" y="600" width="260" height="260" style="fill:white;stroke:black;stroke-width:7.17px;"/>
                </g>
                <g transform="matrix(0.211538,0,0,0.215385,856.322,473.914)">
                    <rect x="871.948" y="600" width="260" height="260" style="fill:white;stroke:black;stroke-width:7.17px;"/>
                </g>
            </g>
            <g transform="matrix(1,0,0,1,0,56)">
                <g transform="matrix(0.211538,0,0,0.215385,691.322,473.914)">
                    <rect x="871.948" y="600" width="260" height="260" style="fill:white;stroke:black;stroke-width:7.17px;"/>
                </g>
                <g transform="matrix(0.211538,0,0,0.215385,746.322,473.914)">
                    <rect x="871.948" y="600" width="260" height="260" style="fill:white;stroke:black;stroke-width:7.17px;"/>
                </g>
                <g transform="matrix(0.211538,0,0,0.215385,801.322,473.914)">
                    <rect x="871.948" y="600" width="260" height="260" style="fill:white;stroke:black;stroke-width:7.17px;"/>
                </g>
                <g transform="matrix(0.211538,0,0,0.215385,856.322,473.914)">
                    <rect x="871.948" y="600" width="260" height="260" style="fill:white;stroke:black;stroke-width:7.17px;"/>
                </g>
            </g>
            <g transform="matrix(1,0,0,1,0,112)">
                <g transform="matrix(0.211538,0,0,0.215385,691.322,473.914)">
                    <rect x="871.948" y="600" width="260" height="260" style="fill:white;stroke:black;stroke-width:7.17px;"/>
                </g>
                <g transform="matrix(0.211538,0,0,0.215385,746.322,473.914)">
                    <rect x="871.948" y="600" width="260" height="260" style="fill:white;stroke:black;stroke-width:7.17px;"/>
                </g>
                <g transform="matrix(0.211538,0,0,0.215385,801.322,473.914)">
                    <rect x="871.948" y="600" width="260" height="260" style="fill:white;stroke:black;stroke-width:7.17px;"/>
                </g>
                <g transform="matrix(0.211538,0,0,0.215385,856.322,473.914)">
                    <rect x="871.948" y="600" width="260" height="260" style="fill:white;stroke:black;stroke-width:7.17px;"/>
                </g>
            </g>
            <g transform="matrix(1,0,0,1,0,168)">
                <g transform="matrix(0.211538,0,0,0.215385,691.322,473.914)">
                    <rect x="871.948" y="600" width="260" height="260" style="fill:white;stroke:black;stroke-width:7.17px;"/>
                </g>
                <g transform="matrix(0.211538,0,0,0.215385,746.322,473.914)">
                    <rect x="871.948" y="600" width="260" height="260" style="fill:white;stroke:black;stroke-width:7.17px;"/>
                </g>
                <g transform="matrix(0.211538,0,0,0.215385,801.322,473.914)">
                    <rect x="871.948" y="600" width="260" height="260" style="fill:white;stroke:black;stroke-width:7.17px;"/>
                </g>
                <g transform="matrix(0.211538,0,0,0.215385,856.322,473.914)">
                    <rect x="871.948" y="600" width="260" height="260" style="fill:white;stroke:black;stroke-width:7.17px;"/>
                </g>
            </g>
            <g transform="matrix(1,0,0,1,0,224)">
                <g transform="matrix(0.211538,0,0,0.215385,691.322,473.914)">
                    <rect x="871.948" y="600" width="260" height="260" style="fill:white;stroke:black;stroke-width:7.17px;"/>
                </g>
                <g transform="matrix(0.211538,0,0,0.215385,746.322,473.914)">
                    <rect x="871.948" y="600" width="260" height="260" style="fill:white;stroke:black;stroke-width:7.17px;"/>
                </g>
                <g transform="matrix(0.211538,0,0,0.215385,801.322,473.914)">
                    <rect x="871.948" y="600" width="260" height="260" style="fill:white;stroke:black;stroke-width:7.17px;"/>
                </g>
                <g transform="matrix(0.211538,0,0,0.215385,856.322,473.914)">
                    <rect x="871.948" y="600" width="260" height="260" style="fill:white;stroke:black;stroke-width:7.17px;"/>
                </g>
            </g>
            <g transform="matrix(1.26551,-2.58555e-16,0.76772,1.13246,-932.071,-0.365904)">
                <path d="M942,789L948,796L1136,796L1131.65,789L942,789Z" style="fill:white;stroke:black;stroke-width:1px;"/>
            </g>
            <g transform="matrix(1.26551,-2.58555e-16,0.76772,1.13246,-932.071,-0.365904)">
                <path d="M1292.35,534.385L1292.35,524.09L1131.65,789L1136,796L1292.35,534.385Z" style="fill:white;stroke:black;stroke-width:1px;"/>
            </g>
        </g>
        <g id="Sunrays">
            <g transform="matrix(1.21492,0.0462871,-0.0335486,0.880568,-184.769,8.67552)">
                <path d="M960.144,562.655L960.111,559.009L1104.22,555.117L1104.22,545.345L1120,560.379L1104.22,575.412L1104.22,565.641L960.144,562.655Z" style="fill:rgb(255,209,0);stroke:black;stroke-width:0.94px;"/>
            </g>
            <g transform="matrix(0.762843,0.482728,-0.503307,0.795363,505.092,-344.403)">
                <path d="M960.144,562.655L960.111,559.009L1104.22,555.117L1104.22,545.345L1120,560.379L1104.22,575.412L1104.22,565.641L960.144,562.655Z" style="fill:rgb(255,209,0);stroke:black;stroke-width:1.08px;"/>
            </g>
            <g transform="matrix(0.581976,0.894301,-0.821525,0.534616,830.387,-574.345)">
                <path d="M960.144,562.655L960.111,559.009L1104.22,555.117L1104.22,545.345L1120,560.379L1104.22,575.412L1104.22,565.641L960.144,562.655Z" style="fill:rgb(255,209,0);stroke:black;stroke-width:0.98px;"/>
            </g>
        </g>
    </g>
</svg>
